<svg width="202" height="160" viewBox="0 0 202 160" fill="none" xmlns="http://www.w3.org/2000/svg">
<g clip-path="url(#clip0_213_7585)">
<path d="M202 35.9073V87.3149C202 91.0117 199.219 94.0085 195.788 94.0085H148.083C144.652 94.0085 141.871 91.0117 141.871 87.3149V35.9073C141.871 32.2105 144.652 29.2136 148.083 29.2136H195.788C199.219 29.2136 202 32.2105 202 35.9073ZM195.788 93.3336C198.873 93.3336 201.374 90.6389 201.374 87.3149V62.193C201.374 44.3518 187.952 29.8886 171.396 29.8886H148.083C144.998 29.8886 142.498 32.5832 142.498 35.9073V87.3149C142.498 90.6389 144.998 93.3336 148.083 93.3336L195.788 93.3336Z" fill="#E6E6E6"/>
<path d="M201.31 61.6112C201.31 44.1291 188.159 29.957 171.936 29.957C155.712 29.957 142.561 44.1291 142.561 61.6112C142.561 79.0933 160.348 101.296 171.936 90.5656C183.523 79.8348 201.31 79.0933 201.31 61.6112Z" fill="#F2F2F2"/>
<path d="M174.128 25.8391V61.6113C174.128 64.7748 171.74 67.3483 168.804 67.3483H135.608C132.672 67.3483 130.284 64.7748 130.284 61.6113V25.8391C130.284 22.6756 132.672 20.1021 135.608 20.1021H168.804C171.74 20.1021 174.128 22.6756 174.128 25.8391ZM168.804 66.6734C171.398 66.6734 173.502 64.407 173.502 61.6113V43.5764C173.502 30.9846 164.029 20.777 152.344 20.777H135.608C133.014 20.777 130.91 23.0434 130.91 25.8391V61.6113C130.91 64.407 133.014 66.6734 135.608 66.6734H168.804Z" fill="#CCCCCC"/>
<path d="M173.541 43.725C173.541 31.0275 163.989 20.7341 152.206 20.7341C140.423 20.7341 130.871 31.0275 130.871 43.725C130.871 56.4226 146.732 74.5856 152.206 63.3412C158.469 50.4745 173.541 56.4226 173.541 43.725Z" fill="#E6E6E6"/>
<path d="M150.953 20.4394V38.663C150.953 41.8265 148.565 44.4001 145.629 44.4001H128.718C125.783 44.4001 123.394 41.8265 123.394 38.663V20.4394C123.394 17.276 125.783 14.7024 128.718 14.7024H145.629C148.565 14.7024 150.953 17.276 150.953 20.4394ZM145.629 43.7251C148.224 43.7251 150.327 41.4587 150.327 38.663V30.1757C150.327 22.0028 144.179 15.3773 136.594 15.3773H128.718C126.124 15.3773 124.021 17.6437 124.021 20.4394V38.663C124.021 41.4587 126.124 43.7251 128.718 43.7251H145.629Z" fill="#3F3D56"/>
<path d="M150.47 29.5513C150.47 21.6384 144.517 15.2236 137.174 15.2236C129.831 15.2236 123.878 21.6383 123.878 29.5513C123.878 37.4643 134.122 48.3766 137.174 41.1792C141.245 31.5761 150.47 37.4643 150.47 29.5513Z" fill="#EA7C69"/>
<path d="M58.573 3.89795H57.9467V118.649H58.573V3.89795Z" fill="#3F3D56"/>
<path d="M58.2599 31.5708C60.3354 31.5708 62.0179 29.7577 62.0179 27.5211C62.0179 25.2845 60.3354 23.4714 58.2599 23.4714C56.1844 23.4714 54.5018 25.2845 54.5018 27.5211C54.5018 29.7577 56.1844 31.5708 58.2599 31.5708Z" fill="#EA7C69"/>
<path d="M24.6708 44.2808L24.9355 56.3566L40.8182 55.8853L37.6085 42.5198L24.6708 44.2808Z" fill="#FFB6B6"/>
<path d="M55.7414 28.0964L53.3249 34.3896L49.7961 33.4035L52.5708 26.8479C52.5112 26.6374 52.4787 26.4142 52.4787 26.1827C52.4787 24.9237 53.4258 23.9031 54.5942 23.9031C55.7626 23.9031 56.7097 24.9237 56.7097 26.1827C56.7097 26.9857 56.3236 27.6902 55.7414 28.0964Z" fill="#FFB6B6"/>
<path d="M18.2087 72.4945L17.9165 65.6911L21.4998 64.969L21.5712 72.1738C21.7081 72.3372 21.8255 72.5244 21.9167 72.7339C22.4129 73.8738 21.9576 75.2313 20.8998 75.7659C19.842 76.3006 18.5823 75.81 18.0862 74.6701C17.7698 73.9432 17.8417 73.1286 18.2087 72.4945Z" fill="#FFB6B6"/>
<path d="M43.7205 152.565L46.7734 152.633L48.4752 139.694L43.9698 139.593L43.7205 152.565Z" fill="#FFB6B6"/>
<path d="M53.3549 158.101C53.3386 158.913 52.7155 159.558 51.962 159.542L45.8925 159.406L44.893 157.052L44.4397 159.372L42.1495 159.323L42.9526 151.023L43.7508 150.991L47.0064 150.852L48.0567 150.809L48.0115 153.163L52.7896 156.879C53.1529 157.162 53.3642 157.619 53.3549 158.101Z" fill="#2F2E41"/>
<path d="M23.1759 152.565L26.2289 152.633L27.9307 139.694L23.4252 139.593L23.1759 152.565Z" fill="#FFB6B6"/>
<path d="M32.8104 158.101C32.7941 158.913 32.171 159.558 31.4175 159.542L25.348 159.406L24.3484 157.052L23.8952 159.372L21.605 159.323L22.4081 151.023L23.2062 150.991L26.4619 150.852L27.5122 150.809L27.4669 153.163L32.245 156.879C32.6083 157.162 32.8197 157.619 32.8104 158.101Z" fill="#2F2E41"/>
<path d="M20.566 26.9219C15.3729 30.4357 16.6497 42.6566 16.8952 48.8607C17.0652 53.1559 16.8628 57.5256 17.4178 61.7733C17.6986 63.9223 17.6858 66.0632 17.7001 68.2489C17.7095 69.6838 17.8815 69.3155 19.0411 69.1933C19.7403 69.1196 21.2714 69.4293 21.8487 68.9958C22.6316 68.4081 22.4201 66.3351 22.5773 65.499C22.7581 64.5377 23.0031 63.628 23.2763 62.6896C24.049 60.0353 24.6355 57.1117 24.6708 54.3166C24.7223 50.2427 24.7468 46.1283 24.5829 42.0672C24.4966 39.9281 24.3332 37.7207 23.9692 35.6189C23.8191 34.7525 23.5329 33.9486 23.1708 33.1565C22.6293 31.9721 22.3752 31.9795 21.1413 31.8247" fill="#EA7C69"/>
<path d="M40.6436 53.0862L23.8344 52.583L24.7682 54.0925L22.6414 56.3567C22.6414 56.3567 14.9629 67.6777 17.2975 77.9924C19.6321 88.3071 18.3177 149.287 18.3177 149.287L32.0055 147.68L30.488 86.1687L41.6941 109.314L38.4358 146.836L50.0987 146.799L53.8341 106.295L40.6436 53.0862Z" fill="#2F2E41"/>
<path d="M35.7886 22.9344C34.7178 21.0551 35.1193 20.0337 32.8699 19.504C31.4883 19.1786 29.8698 18.8413 28.4418 18.9408C26.924 19.0466 26.3342 20.0607 25.5187 21.3774C24.5584 22.9277 23.9193 23.7959 22.4907 24.8734C16.449 29.4304 20.4075 37.1908 18.7472 43.6475C18.3917 45.0304 17.8559 46.3659 17.5167 47.7515C18.6613 43.0758 18.8964 56.235 16.8792 51.5628C17.6142 53.2653 19.6871 52.0157 20.5642 51.3205C22.1976 50.0257 23.6206 49.5155 25.7032 49.2062C28.9246 48.7277 31.1955 51.1448 34.2029 51.7054C37.4387 52.3087 40.2954 51.1746 41.8831 47.9327C44.0839 43.439 43.2739 38.8617 41.4799 34.3412C40.606 32.1392 39.7128 30.0597 38.9293 27.8126C38.1745 25.6479 36.9333 24.5931 35.6562 22.7918" fill="#EA7C69"/>
<path d="M34.7298 24.218C33.4567 25.3155 32.6672 27.8067 32.3892 29.4503C32.0299 31.5749 32.0623 33.9548 32.2787 36.0987C32.4939 38.2295 32.932 40.2968 33.1416 42.435C33.3504 44.5639 35.0425 44.9591 35.5073 47.0483C35.9827 49.1848 35.2591 52.2606 37.3108 52.3653C39.3527 52.4695 40.9633 51.7795 42.7369 50.723C46.9785 48.1961 51.6493 44.8268 53.7173 40.2557C54.2693 39.0355 56.1766 36.1781 56.7523 34.9725C57.3139 33.7964 56.8633 31.7 56.0519 30.6957C54.9156 29.2893 51.5974 28.989 50.5154 27.5631C49.8473 28.5974 50.5451 30.9275 50.2176 32.2025C49.8397 33.6745 44.6317 39.6722 42.9781 39.2494C41.9658 38.9905 42.2291 34.5658 41.8108 33.7146C41.2219 32.5165 41.5437 29.0615 40.8769 27.9283C40.0815 26.5765 41.0767 26.1626 39.761 25.2879C38.5017 24.4507 36.2068 23.9312 34.7298 24.0279" fill="#EA7C69"/>
<path d="M32.3625 17.6706C36.4824 17.6706 39.8222 14.0715 39.8222 9.63192C39.8222 5.19229 36.4824 1.59326 32.3625 1.59326C28.2426 1.59326 24.9027 5.19229 24.9027 9.63192C24.9027 14.0715 28.2426 17.6706 32.3625 17.6706Z" fill="#FFB6B6"/>
<path d="M42.4622 7.39752C42.9659 3.50054 41.4975 2.30832 39.2002 1.95515C34.655 -0.59029 33.6139 0.0495737 32.1728 0.325829L31.6433 0.203063C30.0182 -0.173709 28.4029 -0.0129736 26.9576 0.575772C23.9091 1.81444 21.9065 4.95538 21.6848 8.45779C21.5323 10.8723 20.1829 12.9063 18.8839 14.8671C17.7977 16.5041 18.6285 18.8017 20.4521 19.2245L25.2269 20.3316C25.6402 19.7686 25.9704 19.1787 26.3449 18.4395C26.4926 19.099 26.509 19.8543 26.4319 20.611C28.1218 21.518 29.9665 21.8933 31.9233 21.8842C32.2381 21.4322 32.52 20.9288 32.4828 20.3618C32.5915 20.93 32.7244 21.496 32.7473 22.0752C33.9782 21.221 34.9956 21.472 35.808 22.7848C37.8598 20.9523 38.0205 16.7534 35.5815 15.7016C33.5182 14.8118 36.773 8.58264 38.9923 8.45563C39.0066 8.45481 39.5976 10.8632 39.6186 10.8179C39.9318 10.143 39.7886 9.77301 40.163 9.0338C40.286 9.58984 40.3193 10.2126 40.2787 10.8465C40.8074 10.7221 41.3429 10.54 41.8833 10.2973C42.51 9.38001 42.7523 8.41904 42.4622 7.39752Z" fill="#2F2E41"/>
<path d="M63.1198 154.151C63.7668 154.194 64.1244 153.328 63.6349 152.823L63.5862 152.615C63.5926 152.598 63.599 152.581 63.6055 152.565C64.2598 150.883 66.4773 150.895 67.126 152.579C67.7018 154.073 68.4349 155.57 68.6154 157.15C68.6963 157.848 68.6599 158.558 68.5162 159.243C69.8654 156.067 70.5754 152.599 70.5754 149.111C70.5754 148.235 70.5309 147.359 70.4399 146.485C70.365 145.77 70.2619 145.059 70.1284 144.355C69.4063 140.55 67.8427 136.925 65.5873 133.897C64.5032 133.258 63.599 132.26 63.0529 131.063C62.8567 130.632 62.7029 130.168 62.6301 129.695C62.7535 129.712 63.0954 127.687 63.0023 127.563C63.1743 127.282 63.482 127.142 63.6698 126.868C64.6038 125.503 65.8906 125.741 66.5623 127.596C67.9973 128.376 68.0112 129.67 67.1307 130.915C66.5705 131.707 66.4935 132.779 66.002 133.627C66.0526 133.697 66.1052 133.764 66.1557 133.834C67.0831 135.116 67.8851 136.493 68.5612 137.94C68.3701 136.332 68.6522 134.394 69.1332 133.145C69.6807 131.722 70.7068 130.523 71.6105 129.293C72.696 127.815 74.9218 128.46 75.113 130.333C75.1149 130.352 75.1167 130.37 75.1184 130.388C74.9842 130.469 74.8527 130.556 74.7243 130.648C73.9916 131.17 74.2448 132.394 75.1129 132.538L75.1326 132.541C75.084 133.062 75.0011 133.579 74.8798 134.087C76.039 138.918 73.5362 140.678 69.9625 140.757C69.8836 140.8 69.8068 140.844 69.7279 140.885C70.0899 141.984 70.3792 143.111 70.5936 144.253C70.7858 145.262 70.9193 146.282 70.9941 147.307C71.0871 148.599 71.0791 149.898 70.9779 151.189L70.984 151.143C71.2409 149.722 71.9569 148.394 72.9966 147.474C74.5454 146.103 76.7336 145.598 78.4045 144.496C79.2088 143.966 80.2395 144.652 80.0991 145.656L80.0923 145.705C79.8435 145.813 79.6008 145.94 79.3661 146.082C79.2319 146.163 79.1004 146.25 78.972 146.341C78.2393 146.864 78.4925 148.087 79.3606 148.232L79.3803 148.235C79.3945 148.237 79.4066 148.239 79.4207 148.242C78.994 149.334 78.3993 150.347 77.6549 151.221C76.9301 155.439 73.8167 155.839 70.4864 154.611H70.4844C70.1203 156.32 69.5883 157.989 68.9046 159.58H63.2612C63.241 159.513 63.2228 159.443 63.2046 159.376C63.7264 159.41 64.2524 159.378 64.7661 159.275C64.3474 158.722 63.9287 158.164 63.51 157.61C63.4999 157.599 63.4918 157.588 63.4837 157.577C63.2713 157.294 63.0569 157.013 62.8445 156.729L62.8444 156.729C62.8311 155.859 62.9281 154.992 63.1198 154.151Z" fill="#F2F2F2"/>
<path d="M0 159.598C0 159.821 0.16599 160 0.372691 160H79.6955C79.9022 160 80.0682 159.821 80.0682 159.598C80.0682 159.376 79.9022 159.197 79.6955 159.197H0.372691C0.16599 159.197 0 159.376 0 159.598Z" fill="#CCCCCC"/>
</g>
<defs>
<clipPath id="clip0_213_7585">
<rect width="202" height="160" fill="white"/>
</clipPath>
</defs>
</svg>
