<svg width="202" height="160" viewBox="0 0 202 160" fill="none" xmlns="http://www.w3.org/2000/svg">
<g clip-path="url(#clip0_213_7668)">
<path d="M31.1363 138.969C32.7904 146.902 38.456 151.815 38.456 151.815C38.456 151.815 41.4397 143.866 39.7857 135.933C38.1316 128 32.4661 123.087 32.4661 123.087C32.4661 123.087 29.4823 131.036 31.1363 138.969Z" fill="#3F3D56"/>
<path d="M33.5669 137.264C38.1056 142.996 38.66 151.809 38.66 151.809C38.66 151.809 31.8556 151.327 27.3168 145.594C22.778 139.862 22.2236 131.05 22.2236 131.05C22.2236 131.05 29.0281 131.532 33.5669 137.264Z" fill="#EA7C69"/>
<path d="M181.738 159.36H21.9137V160H181.738V159.36Z" fill="#2F2E41"/>
<path d="M40.696 159.68H34.2833V151.36H40.696V159.68ZM34.7766 159.04H40.2027V152H34.7766V159.04Z" fill="#3F3D56"/>
<path d="M54.3468 6.34448H0V76.8555H54.3468V6.34448Z" fill="#3F3D56"/>
<path d="M54.3469 23.8873V25.5056C53.5186 24.7936 52.85 23.8104 52.4087 22.6554C51.6852 20.7355 51.7081 18.5225 51.731 16.3817C51.7572 13.8373 51.7834 11.4374 50.5393 9.87428C49.1708 8.15821 46.9806 8.40033 44.8624 8.63397C44.6136 8.65946 44.3648 8.68917 44.1192 8.71465C41.9944 8.92281 39.6274 8.22619 38.4783 6.34448H39.9122C40.9632 7.26196 42.5707 7.58479 44.0472 7.44036C44.2862 7.41912 44.5317 7.38938 44.7773 7.3639C47.0068 7.11756 49.5342 6.8372 51.2203 8.95677C52.7721 10.9022 52.7427 13.6972 52.7132 16.3987C52.6903 18.3908 52.6707 20.4467 53.2927 22.0947C53.5508 22.7756 53.9089 23.3845 54.3469 23.8873Z" fill="#EA7C69"/>
<path d="M54.3469 35.0798V36.9743C54.1084 36.57 53.8409 36.1959 53.548 35.8572C51.8587 33.9245 49.4327 33.4997 47.0886 33.0834C46.7841 33.0325 46.4862 32.9773 46.1883 32.922C42.3873 32.2127 40.0301 30.5179 38.9857 27.7526C38.2622 25.8327 38.2851 23.6197 38.308 21.4789C38.3342 18.9345 38.3604 16.5346 37.1163 14.9715C35.7478 13.2554 33.5576 13.4975 31.4394 13.7312C31.1905 13.7566 30.9417 13.7863 30.6962 13.8118C27.9657 14.0794 24.8326 12.8519 24.4037 9.53447C24.2564 8.39608 24.4757 7.35117 24.7999 6.34448H25.8737C25.5136 7.35542 25.2451 8.33238 25.3728 9.32209C25.6969 11.8537 28.3226 12.7627 30.6241 12.5375C30.8631 12.5163 31.1087 12.4866 31.3542 12.4611C33.5838 12.2147 36.1112 11.9344 37.7973 14.054C39.3491 15.9994 39.3196 18.7943 39.2902 21.4958C39.2673 23.488 39.2476 25.5439 39.8697 27.1919C40.7602 29.5537 42.8718 31.0148 46.3291 31.6605C46.6237 31.7157 46.9216 31.7709 47.2196 31.8219C49.7077 32.2594 52.2843 32.7139 54.1995 34.9014C54.2486 34.9567 54.2978 35.0161 54.3469 35.0798Z" fill="#EA7C69"/>
<path d="M54.3468 67.0136V69.6302C53.1649 67.9991 52.1762 65.7606 51.4199 62.9614C51.2595 62.3667 51.1056 61.7593 50.9518 61.1519C50.1038 57.826 49.2264 54.3896 47.1376 52.1936C44.9048 49.8489 41.7062 49.3307 38.6124 48.8295C38.2163 48.7658 37.8201 48.702 37.4272 48.6341C32.4116 47.7718 29.3047 45.7202 27.9264 42.3645C26.9704 40.0326 26.9998 37.3481 27.0293 34.7528C27.0653 31.669 27.1013 28.7551 25.4578 26.8606C23.6539 24.7793 20.7631 25.0724 17.9704 25.357C17.6398 25.3909 17.3124 25.4249 16.9915 25.4547C13.387 25.7775 9.25201 24.2908 8.68888 20.2683C8.4106 18.2974 9.12104 16.5516 9.80529 14.861C10.1982 13.8925 10.5714 12.9708 10.7613 12.0236C11.1607 10.0739 10.6663 7.87788 9.56956 6.34448H11.1738C11.6367 7.21678 11.9517 8.20662 12.0979 9.24858C12.244 10.2905 12.2181 11.3609 12.0217 12.3889C11.7958 13.4975 11.3768 14.5339 10.9708 15.5364C10.3455 17.0741 9.75945 18.5267 9.96571 20.0134C10.3979 23.0802 13.8584 24.1846 16.8933 23.9128C17.2109 23.883 17.535 23.849 17.8591 23.8193C20.7991 23.5177 24.1319 23.1822 26.3582 25.752C28.4043 28.1094 28.3651 31.4991 28.3258 34.774C28.2996 37.1909 28.2701 39.6843 29.0886 41.6849C30.2639 44.5436 33.0533 46.3191 37.6138 47.1049C38.0002 47.1729 38.393 47.2366 38.7859 47.3003C42.0729 47.8313 45.4679 48.3792 47.9921 51.034C50.3592 53.5231 51.2922 57.1719 52.1893 60.7016C52.3431 61.3048 52.497 61.8995 52.6542 62.4899C53.0704 64.0837 53.6391 65.6034 54.3468 67.0136Z" fill="#EA7C69"/>
<path d="M0 34.8166C1.4929 37.1613 4.65877 38.0278 7.49725 37.773C7.81809 37.7432 8.14548 37.7092 8.47614 37.6753C11.2688 37.3907 14.1596 37.0976 15.9636 39.1789C17.6071 41.0734 17.5711 43.9873 17.535 47.0711C17.5056 49.6664 17.4761 52.3509 18.4321 54.6828C19.8104 58.0385 22.9173 60.0901 27.933 60.9524C28.3258 61.0203 28.722 61.084 29.1181 61.1478C32.212 61.649 35.4106 62.1672 37.6434 64.5119C39.7321 66.7079 40.6095 70.1443 41.4575 73.4702C41.6114 74.0776 41.7652 74.685 41.9256 75.2797C42.073 75.8276 42.2301 76.3501 42.3938 76.8556H43.795C43.5495 76.1632 43.34 75.4708 43.1599 74.8082C43.0028 74.2178 42.8489 73.6231 42.695 73.02C41.798 69.4902 40.8649 65.8414 38.4979 63.3523C35.9737 60.6975 32.5786 60.1496 29.2916 59.6186C28.8988 59.5549 28.5059 59.4912 28.1196 59.4232C23.559 58.6374 20.7697 56.8619 19.5943 54.0032C18.7759 52.0026 18.8053 49.5092 18.8315 47.0923C18.8708 43.8174 18.9101 40.4277 16.8639 38.0703C14.6377 35.5005 11.3048 35.836 8.36484 36.1376C8.04072 36.1674 7.7166 36.2013 7.39904 36.2311C4.36412 36.5029 0.903606 35.3985 0.47145 32.3317C0.265201 30.8451 0.851224 29.3924 1.47654 27.8547C1.8825 26.8523 2.30156 25.8158 2.52746 24.7072C3.14296 21.6744 2.10513 18.3145 7.36682e-06 16.4795V18.5609C1.14915 20.0985 1.67298 22.3455 1.26701 24.3419C1.07712 25.2891 0.703897 26.2109 0.311028 27.1793C0.206265 27.4384 0.101496 27.6933 7.36682e-06 27.9566L0 34.8166Z" fill="#EA7C69"/>
<path d="M24.0403 76.8555H22.6816C22.6096 76.5794 22.5408 76.2991 22.4688 76.0187C21.6209 72.6928 20.7435 69.2565 18.6547 67.0605C16.4219 64.7157 13.2233 64.1975 10.1295 63.6963C9.73331 63.6326 9.33718 63.5689 8.94431 63.5009C4.51799 62.7406 1.57475 61.05 0 58.357V54.1306C0.101208 54.9744 0.305673 55.7917 0.605664 56.5518C1.78101 59.4104 4.57038 61.186 9.13093 61.9718C9.51725 62.0397 9.91012 62.1034 10.303 62.1672C13.59 62.6981 16.985 63.246 19.5092 65.9008C21.8762 68.39 22.8093 72.0387 23.7063 75.5685C23.8177 76.0018 23.9257 76.4308 24.0403 76.8555Z" fill="#EA7C69"/>
<path d="M128.01 6.34448H73.6628V76.8555H128.01V6.34448Z" fill="#3F3D56"/>
<path d="M99.8541 11.4417C99.8539 15.4142 99.0435 19.316 97.5053 22.7508C95.967 26.1856 93.7557 29.0313 91.0958 30.9988C88.4358 32.9663 85.422 33.9857 82.3603 33.9535C79.2985 33.9212 76.2978 32.8385 73.6628 30.8152V6.34448H99.4056C99.7052 8.01562 99.8557 9.72592 99.8541 11.4417Z" fill="#EA7C69"/>
<path d="M113.932 39.0514C119.718 39.0514 124.408 32.9659 124.408 25.4589C124.408 17.952 119.718 11.8665 113.932 11.8665C108.146 11.8665 103.455 17.952 103.455 25.4589C103.455 32.9659 108.146 39.0514 113.932 39.0514Z" fill="#EA7C69"/>
<path d="M90.3598 64.1124C94.5185 64.1124 97.8898 59.7384 97.8898 54.3428C97.8898 48.9472 94.5185 44.5732 90.3598 44.5732C86.2011 44.5732 82.8298 48.9472 82.8298 54.3428C82.8298 59.7384 86.2011 64.1124 90.3598 64.1124Z" fill="#EA7C69"/>
<path d="M128.01 65.3019V76.8555H117.235C116.778 74.997 116.76 73.0034 117.183 71.1314C117.607 69.2594 118.452 67.5948 119.611 66.3519C120.77 65.109 122.19 64.3447 123.687 64.1576C125.183 63.9705 126.689 64.369 128.01 65.3019Z" fill="#EA7C69"/>
<path d="M109.349 56.4668C110.433 56.4668 111.313 55.3258 111.313 53.9182C111.313 52.5107 110.433 51.3696 109.349 51.3696C108.264 51.3696 107.384 52.5107 107.384 53.9182C107.384 55.3258 108.264 56.4668 109.349 56.4668Z" fill="#EA7C69"/>
<path d="M202 6.34448H147.653V76.8555H202V6.34448Z" fill="#3F3D56"/>
<path d="M174.172 6.34448V35.2285H147.653V36.9276H175.481V6.34448H174.172Z" fill="#EA7C69"/>
<path d="M199.751 76.8556L202 72.7056V69.7535L198.15 76.8556H199.751ZM190.617 46.4509L178.565 68.6874L187.52 76.8556H189.795L180.389 68.2754L190.934 48.8169L202 58.9135V56.8364L190.617 46.4509Z" fill="#EA7C69"/>
<path d="M170.571 43.6345L163.627 52.6438L170.571 61.6531L177.515 52.6438L170.571 43.6345ZM165.476 52.6438L170.571 46.0345L175.665 52.6438L170.571 59.2531L165.476 52.6438Z" fill="#EA7C69"/>
<path d="M26.6373 12.8C29.3616 12.8 31.5702 9.93462 31.5702 6.4C31.5702 2.86538 29.3616 0 26.6373 0C23.913 0 21.7045 2.86538 21.7045 6.4C21.7045 9.93462 23.913 12.8 26.6373 12.8Z" fill="#F2F2F2"/>
<path d="M102.85 12.8C105.574 12.8 107.783 9.93462 107.783 6.4C107.783 2.86538 105.574 0 102.85 0C100.125 0 97.917 2.86538 97.917 6.4C97.917 9.93462 100.125 12.8 102.85 12.8Z" fill="#F2F2F2"/>
<path d="M175.609 12.8C178.334 12.8 180.542 9.93462 180.542 6.4C180.542 2.86538 178.334 0 175.609 0C172.885 0 170.676 2.86538 170.676 6.4C170.676 9.93462 172.885 12.8 175.609 12.8Z" fill="#F2F2F2"/>
<path d="M97.7936 43.68C100.382 43.68 102.48 40.9579 102.48 37.6C102.48 34.2421 100.382 31.52 97.7936 31.52C95.2055 31.52 93.1074 34.2421 93.1074 37.6C93.1074 40.9579 95.2055 43.68 97.7936 43.68Z" fill="#FFB8B8"/>
<path d="M95.3273 40.4801C95.3273 40.4801 96.5605 48.8001 96.0672 50.4001C95.5739 52.0001 102.973 49.7601 102.973 49.7601C102.973 49.7601 101.493 41.4401 101.74 39.5201C101.987 37.6001 95.3273 40.4801 95.3273 40.4801Z" fill="#FFB8B8"/>
<path d="M87.1881 69.28L87.6813 77.9199L90.1295 91.4889L90.8876 95.1999L92.1209 89.4399L90.8876 76.3199L90.4688 70.413L87.1881 69.28Z" fill="#FFB8B8"/>
<path d="M113.085 68V76.96C113.085 76.96 112.346 88.48 110.866 91.36C109.386 94.24 108.893 79.84 108.893 79.84L110.052 69.28L113.085 68Z" fill="#FFB8B8"/>
<path d="M91.1343 95.84C91.1343 95.84 89.9011 97.76 90.8877 117.28C91.8742 136.8 90.3944 150.88 93.6007 150.88C93.6007 150.88 92.6142 155.04 95.3272 155.36C98.0403 155.68 99.2735 156 99.5202 155.04C99.7668 154.08 100.26 149.6 99.5202 149.6C99.5202 149.6 99.5202 150.88 100.013 145.76C100.507 140.64 100.507 116.32 101.74 113.12L105.686 124.96C105.686 124.96 105.686 130.4 106.426 132.96C107.166 135.52 108.399 150.24 108.399 150.24L108.153 152.48C108.153 152.48 114.072 153.76 114.319 152.48C114.565 151.2 114.565 149.28 114.319 148.64C114.072 148 114.072 148 114.565 146.72C115.059 145.44 115.059 144.48 114.812 143.52C114.565 142.56 114.565 121.76 114.565 121.76C114.565 121.76 114.072 96.48 111.112 95.2C108.153 93.92 91.1343 95.84 91.1343 95.84Z" fill="#2F2E41"/>
<path d="M94.3407 152.8L92.3675 157.28C92.3675 157.28 89.2845 155.84 89.9011 159.52C95.2039 160 98.9036 159.36 98.9036 159.36C98.9036 159.36 100.137 160 100.383 159.04C100.63 158.08 99.7668 154.72 99.0269 154.72C98.287 154.72 94.3407 152.8 94.3407 152.8Z" fill="#2F2E41"/>
<path d="M108.646 151.52C108.646 151.52 106.673 157.28 107.413 157.6C108.153 157.92 114.812 159.2 115.305 159.52C115.799 159.84 118.265 160.16 118.512 158.24C118.758 156.32 117.278 155.68 117.278 155.68C117.278 155.68 114.565 155.04 113.825 151.84C113.086 148.64 108.646 151.52 108.646 151.52Z" fill="#2F2E41"/>
<path d="M103.466 48.8C103.466 48.8 96.807 47.2 95.3272 48.8C93.8473 50.4 87.6813 53.6 87.6813 55.2C87.6813 56.8 90.8876 72.48 90.8876 72.48C90.8876 72.48 89.1611 96.16 90.8876 96.8C92.6141 97.44 95.5738 95.52 99.0268 97.76C102.48 100 112.345 95.84 112.345 95.84C112.345 95.84 108.646 75.36 109.632 71.52C110.619 67.68 111.359 54.56 111.359 54.56C111.359 54.56 107.166 48.8 103.466 48.8Z" fill="#8985A8"/>
<path d="M89.4079 54.24L87.6814 54.88C87.6814 54.88 83.9817 69.92 85.4616 70.56C86.9414 71.2 91.1344 72.48 91.6277 72.48C92.1209 72.48 89.4079 54.24 89.4079 54.24Z" fill="#8985A8"/>
<path d="M107.413 52.6399L111.359 54.5599C111.359 54.5599 116.538 67.0399 115.305 68.6399C114.072 70.2399 108.646 71.8399 108.646 71.8399L107.413 52.6399Z" fill="#8985A8"/>
<path d="M97.6513 30.0902C97.2616 29.9986 96.861 30.0215 96.4791 30.1574C96.1733 30.333 95.8919 30.5725 95.646 30.8664C95.1997 31.3278 94.7231 31.7375 94.2216 32.0908C93.8219 32.3723 93.3923 32.6328 93.1133 33.0987C92.9814 33.3342 92.876 33.5929 92.8005 33.8669C92.3198 35.4596 92.1906 37.1945 92.4274 38.877C92.454 39.1161 92.5095 39.3483 92.5917 39.565C92.8481 40.1777 93.4142 40.4192 93.8912 40.7404C94.7967 41.3503 95.4831 42.3772 96.2258 43.2848C96.5017 43.6421 96.8117 43.9521 97.1483 44.2071C98.2078 44.9567 99.5029 44.7121 100.692 44.4471C100.777 44.4469 100.86 44.425 100.938 44.3828C101.016 44.3406 101.086 44.2788 101.145 44.201C101.205 44.1232 101.251 44.031 101.283 43.9297C101.315 43.8283 101.331 43.7199 101.33 43.6105L102.269 38.132C102.439 37.3202 102.52 36.4814 102.509 35.6403C102.444 34.3104 101.889 32.4682 101.137 31.5235C100.26 30.4227 98.7971 30.2476 97.6513 30.0902Z" fill="#2F2E41"/>
<path d="M65.9127 154.855C66.9876 154.855 67.859 153.724 67.859 152.329C67.859 150.935 66.9876 149.804 65.9127 149.804C64.8377 149.804 63.9663 150.935 63.9663 152.329C63.9663 153.724 64.8377 154.855 65.9127 154.855Z" fill="#EA7C69"/>
<path d="M65.9127 159.624C64.8006 159.624 63.7135 159.197 62.7889 158.395C61.8642 157.593 61.1435 156.454 60.7179 155.121C60.2924 153.788 60.181 152.321 60.398 150.906C60.6149 149.491 61.1504 148.191 61.9368 147.171C62.7232 146.151 63.725 145.456 64.8158 145.174C65.9065 144.893 67.037 145.037 68.0644 145.589C69.0919 146.142 69.97 147.077 70.5879 148.276C71.2057 149.476 71.5355 150.886 71.5355 152.329C71.5338 154.263 70.9409 156.118 69.8868 157.485C68.8327 158.853 67.4034 159.622 65.9127 159.624ZM65.9127 145.595C64.8862 145.595 63.8827 145.99 63.0292 146.73C62.1756 147.47 61.5104 148.522 61.1175 149.752C60.7247 150.983 60.6219 152.337 60.8222 153.643C61.0224 154.949 61.5168 156.149 62.2426 157.091C62.9685 158.033 63.8933 158.674 64.9001 158.934C65.9069 159.194 66.9505 159.06 67.8989 158.551C68.8473 158.041 69.6579 157.178 70.2282 156.071C70.7986 154.963 71.103 153.661 71.103 152.329C71.1014 150.544 70.5541 148.832 69.581 147.57C68.608 146.308 67.2888 145.597 65.9127 145.595Z" fill="#2F2E41"/>
<path d="M160.623 155.175C161.698 155.175 162.57 154.044 162.57 152.649C162.57 151.255 161.698 150.124 160.623 150.124C159.548 150.124 158.677 151.255 158.677 152.649C158.677 154.044 159.548 155.175 160.623 155.175Z" fill="#EA7C69"/>
<path d="M160.623 159.945C159.511 159.945 158.424 159.517 157.499 158.715C156.575 157.913 155.854 156.774 155.428 155.441C155.003 154.108 154.892 152.641 155.109 151.226C155.325 149.811 155.861 148.511 156.647 147.491C157.434 146.471 158.436 145.776 159.526 145.494C160.617 145.213 161.748 145.357 162.775 145.91C163.802 146.462 164.681 147.397 165.298 148.596C165.916 149.796 166.246 151.207 166.246 152.649C166.244 154.584 165.651 156.438 164.597 157.805C163.543 159.173 162.114 159.942 160.623 159.945ZM160.623 145.915C159.597 145.915 158.593 146.31 157.74 147.05C156.886 147.79 156.221 148.842 155.828 150.072C155.435 151.303 155.332 152.657 155.533 153.963C155.733 155.269 156.227 156.469 156.953 157.411C157.679 158.353 158.604 158.994 159.611 159.254C160.618 159.514 161.661 159.38 162.61 158.871C163.558 158.361 164.369 157.498 164.939 156.391C165.509 155.283 165.814 153.981 165.814 152.649C165.812 150.864 165.265 149.152 164.292 147.89C163.319 146.628 161.999 145.917 160.623 145.915Z" fill="#2F2E41"/>
<path d="M160.623 141.095C161.698 141.095 162.57 139.964 162.57 138.569C162.57 137.175 161.698 136.044 160.623 136.044C159.548 136.044 158.677 137.175 158.677 138.569C158.677 139.964 159.548 141.095 160.623 141.095Z" fill="#EA7C69"/>
<path d="M160.623 145.864C159.511 145.864 158.424 145.437 157.499 144.635C156.575 143.833 155.854 142.694 155.428 141.361C155.003 140.028 154.892 138.561 155.109 137.146C155.325 135.731 155.861 134.431 156.647 133.411C157.434 132.391 158.436 131.696 159.526 131.414C160.617 131.133 161.748 131.277 162.775 131.829C163.802 132.382 164.681 133.317 165.298 134.516C165.916 135.716 166.246 137.126 166.246 138.569C166.244 140.503 165.651 142.358 164.597 143.725C163.543 145.093 162.114 145.862 160.623 145.864ZM160.623 131.835C159.597 131.835 158.593 132.23 157.74 132.97C156.886 133.71 156.221 134.762 155.828 135.992C155.435 137.223 155.332 138.577 155.533 139.883C155.733 141.189 156.227 142.389 156.953 143.331C157.679 144.273 158.604 144.914 159.611 145.174C160.618 145.434 161.661 145.3 162.61 144.791C163.558 144.281 164.369 143.418 164.939 142.311C165.509 141.203 165.814 139.901 165.814 138.569C165.812 136.784 165.265 135.072 164.292 133.81C163.319 132.548 161.999 131.837 160.623 131.835Z" fill="#2F2E41"/>
</g>
<defs>
<clipPath id="clip0_213_7668">
<rect width="202" height="160" fill="white"/>
</clipPath>
</defs>
</svg>
