<svg width="159" height="158" viewBox="0 0 159 158" fill="none" xmlns="http://www.w3.org/2000/svg">
<g clip-path="url(#clip0_213_7624)">
<path d="M137.44 151.494C138.261 151.538 138.715 150.651 138.094 150.134L138.032 149.921C138.04 149.904 138.048 149.886 138.056 149.869C138.887 148.148 141.7 148.16 142.523 149.884C143.254 151.414 144.184 152.947 144.413 154.565C144.516 155.28 144.469 156.007 144.287 156.708C145.999 153.456 146.9 149.904 146.9 146.333C146.9 145.436 146.843 144.538 146.728 143.643C146.633 142.911 146.502 142.183 146.333 141.462C145.416 137.565 143.433 133.853 140.571 130.752C139.195 130.098 138.048 129.076 137.355 127.851C137.106 127.409 136.911 126.933 136.819 126.449C136.975 126.467 137.409 124.393 137.291 124.266C137.509 123.978 137.9 123.835 138.138 123.554C139.323 122.156 140.956 122.4 141.808 124.299C143.629 125.098 143.646 126.424 142.529 127.699C141.818 128.51 141.721 129.607 141.097 130.476C141.161 130.547 141.228 130.616 141.292 130.688C142.469 132 143.486 133.411 144.344 134.893C144.102 133.246 144.46 131.261 145.07 129.982C145.765 128.525 147.067 127.297 148.213 126.037C149.59 124.524 152.415 125.184 152.657 127.103C152.659 127.121 152.662 127.14 152.664 127.159C152.494 127.242 152.327 127.331 152.164 127.425C151.234 127.959 151.556 129.213 152.657 129.361L152.682 129.364C152.62 129.897 152.515 130.426 152.361 130.947C153.832 135.894 150.657 137.696 146.122 137.777C146.022 137.822 145.925 137.866 145.824 137.909C146.284 139.034 146.651 140.188 146.923 141.357C147.167 142.391 147.336 143.436 147.431 144.485C147.549 145.808 147.539 147.139 147.411 148.46L147.418 148.413C147.744 146.958 148.653 145.599 149.972 144.657C151.937 143.253 154.713 142.736 156.833 141.607C157.854 141.064 159.162 141.766 158.984 142.795L158.975 142.844C158.659 142.956 158.351 143.085 158.054 143.23C157.883 143.314 157.716 143.403 157.553 143.496C156.624 144.031 156.945 145.284 158.047 145.432L158.072 145.436C158.089 145.438 158.105 145.44 158.123 145.442C157.581 146.561 156.827 147.599 155.882 148.494C154.963 152.813 151.012 153.223 146.787 151.965H146.784C146.322 153.715 145.647 155.425 144.78 157.054H137.62C137.594 156.985 137.571 156.914 137.548 156.844C138.21 156.88 138.877 156.847 139.529 156.742C138.998 156.175 138.467 155.603 137.935 155.036C137.922 155.025 137.912 155.014 137.902 155.003C137.632 154.713 137.36 154.425 137.091 154.134L137.091 154.134C137.074 153.243 137.197 152.355 137.44 151.494Z" fill="#F2F2F2"/>
<path d="M70.8635 157.589C70.8635 157.817 71.0741 158 71.3364 158H158.074C158.336 158 158.547 157.817 158.547 157.589C158.547 157.361 158.336 157.177 158.074 157.177H71.3364C71.0741 157.177 70.8635 157.361 70.8635 157.589Z" fill="#CCCCCC"/>
<path d="M86.5881 158H16.4856C7.93784 158 0.983643 151.952 0.983643 144.517V13.483C0.983639 6.04849 7.93784 0 16.4856 0H86.5881C95.1357 0 102.09 6.04849 102.09 13.483V144.517C102.09 151.952 95.1357 158 86.5881 158Z" fill="#3F3D56"/>
<path d="M102.09 48.1985C101.728 48.1985 101.434 48.4543 101.434 48.7689V67.0216C101.434 67.3362 101.728 67.592 102.09 67.592C102.452 67.592 102.746 67.3362 102.746 67.0216V48.7689C102.746 48.4543 102.452 48.1985 102.09 48.1985Z" fill="#3F3D56"/>
<path d="M100.614 13.483V144.515C100.614 150.986 94.8237 156.279 87.5016 156.69H87.4983C87.3901 156.695 87.2819 156.701 87.1704 156.704C86.9769 156.712 86.7835 156.715 86.5867 156.715C86.5867 156.715 85.8653 156.67 84.5472 156.584C83.2159 156.499 81.278 156.37 78.8613 156.202C78.1366 156.153 77.3726 156.099 76.566 156.042C74.9592 155.928 73.1951 155.803 71.3031 155.66C70.5489 155.606 69.7685 155.546 68.9717 155.486C64.8991 155.181 60.338 154.824 55.5276 154.419C54.7144 154.354 53.8947 154.285 53.0683 154.214C52.8519 154.194 52.6322 154.177 52.4125 154.157C48.9826 153.863 2.45935 146.043 2.45935 144.515V13.483C2.45935 6.74378 8.73872 1.28223 16.4871 1.28223H24.8618C26.1996 1.28223 27.2751 2.18916 27.3899 3.34992C27.3998 3.42693 27.4096 3.50391 27.426 3.58092C27.6686 4.74739 28.8983 5.5602 30.2624 5.5602H72.8115C74.1755 5.5602 75.4052 4.74739 75.6478 3.58092C75.6642 3.50391 75.6741 3.42693 75.6839 3.34992C75.7987 2.18916 76.8742 1.28223 78.212 1.28223H86.5867C94.3351 1.28223 100.614 6.74378 100.614 13.483Z" fill="white"/>
<path d="M0.655807 34.509C0.294119 34.509 0 34.7649 0 35.0794V39.6426C0 39.9572 0.294123 40.213 0.655807 40.213C1.01749 40.213 1.31161 39.9572 1.31161 39.6426V35.0794C1.31161 34.7648 1.01749 34.509 0.655807 34.509Z" fill="#3F3D56"/>
<path d="M0.655807 48.1985C0.294119 48.1985 0 48.4543 0 48.7689V57.61C0 57.9246 0.294123 58.1804 0.655807 58.1804C1.01749 58.1804 1.31161 57.9246 1.31161 57.61V48.7689C1.31161 48.4543 1.01749 48.1985 0.655807 48.1985Z" fill="#3F3D56"/>
<path d="M0.655807 60.7473C0.294119 60.7473 0 61.0031 0 61.3177V70.1589C0 70.4734 0.294123 70.7293 0.655807 70.7293C1.01749 70.7293 1.31161 70.4734 1.31161 70.1589V61.3177C1.31161 61.0031 1.01749 60.7473 0.655807 60.7473Z" fill="#3F3D56"/>
<path d="M24.6335 3.27979H12.0918C12.0237 3.27979 11.9685 3.32778 11.9685 3.38699V4.59857C11.9685 4.65778 12.0237 4.70578 12.0918 4.70578H24.6335C24.7016 4.70578 24.7568 4.65778 24.7568 4.59857V3.38699C24.7568 3.32778 24.7016 3.27979 24.6335 3.27979Z" fill="#E6E6E6"/>
<path d="M80.2844 4.7059C81.0088 4.7059 81.596 4.19515 81.596 3.56511C81.596 2.93507 81.0088 2.42432 80.2844 2.42432C79.56 2.42432 78.9728 2.93507 78.9728 3.56511C78.9728 4.19515 79.56 4.7059 80.2844 4.7059Z" fill="#E6E6E6"/>
<path d="M83.8913 4.7059C84.6157 4.7059 85.2029 4.19515 85.2029 3.56511C85.2029 2.93507 84.6157 2.42432 83.8913 2.42432C83.1669 2.42432 82.5797 2.93507 82.5797 3.56511C82.5797 4.19515 83.1669 4.7059 83.8913 4.7059Z" fill="#E6E6E6"/>
<path d="M87.4983 4.7059C88.2227 4.7059 88.8099 4.19515 88.8099 3.56511C88.8099 2.93507 88.2227 2.42432 87.4983 2.42432C86.7739 2.42432 86.1866 2.93507 86.1866 3.56511C86.1866 4.19515 86.7739 4.7059 87.4983 4.7059Z" fill="#E6E6E6"/>
<path opacity="0.4" d="M67.1175 89.9218C69.7509 89.9218 71.8857 88.0651 71.8857 85.7746C71.8857 83.4842 69.7509 81.6274 67.1175 81.6274C64.484 81.6274 62.3492 83.4842 62.3492 85.7746C62.3492 88.0651 64.484 89.9218 67.1175 89.9218Z" fill="#EA7C69"/>
<path d="M79.0234 131.915H23.3943C22.5179 131.915 21.8049 131.295 21.8049 130.533C21.8049 129.77 22.5179 129.15 23.3943 129.15H79.0234C79.8998 129.15 80.6128 129.77 80.6128 130.533C80.6128 131.295 79.8998 131.915 79.0234 131.915Z" fill="#E6E6E6"/>
<path d="M86.3318 22.1843H16.4141C12.2459 22.1843 8.85645 25.1323 8.85645 28.7576V62.267C8.85645 65.8923 12.2459 68.8403 16.4141 68.8403H86.3318C90.5001 68.8403 93.8895 65.8923 93.8895 62.267V28.7576C93.8895 25.1323 90.5001 22.1843 86.3318 22.1843ZM93.0948 62.267C93.0948 65.5122 90.063 68.1491 86.3318 68.1491H16.4141C12.6829 68.1491 9.65115 65.5122 9.65115 62.267V28.7576C9.65115 25.5125 12.6829 22.8755 16.4141 22.8755H86.3318C90.063 22.8755 93.0948 25.5125 93.0948 28.7576V62.267Z" fill="#E6E6E6"/>
<path d="M28.9138 101.839L25.6437 100.492C26.985 102.12 28.1407 104.663 28.7594 106.686C29.8071 104.801 31.4959 102.495 33.1676 101.118L29.7114 101.891C31.8411 92.8129 39.8514 86.2957 49.0243 86.2957V85.6045C39.443 85.6045 31.0883 92.3947 28.9138 101.839Z" fill="#3F3D56"/>
<path d="M43.9651 115.672H23.3029C22.4265 115.672 21.7135 115.052 21.7135 114.289C21.7135 113.527 22.4265 112.907 23.3029 112.907H43.9651C44.8415 112.907 45.5545 113.527 45.5545 114.289C45.5545 115.052 44.8415 115.672 43.9651 115.672Z" fill="#EA7C69"/>
<path d="M61.5546 89.9218C64.188 89.9218 66.3228 88.0651 66.3228 85.7746C66.3228 83.4842 64.188 81.6274 61.5546 81.6274C58.9212 81.6274 56.7864 83.4842 56.7864 85.7746C56.7864 88.0651 58.9212 89.9218 61.5546 89.9218Z" fill="white"/>
<path opacity="0.7" d="M61.5546 89.9218C64.188 89.9218 66.3228 88.0651 66.3228 85.7746C66.3228 83.4842 64.188 81.6274 61.5546 81.6274C58.9212 81.6274 56.7864 83.4842 56.7864 85.7746C56.7864 88.0651 58.9212 89.9218 61.5546 89.9218Z" fill="#EA7C69"/>
<path d="M35.7702 43.2658C38.4036 43.2658 40.5384 41.4091 40.5384 39.1186C40.5384 36.8282 38.4036 34.9714 35.7702 34.9714C33.1368 34.9714 31.002 36.8282 31.002 39.1186C31.002 41.4091 33.1368 43.2658 35.7702 43.2658Z" fill="#CCCCCC"/>
<path opacity="0.7" d="M51.3729 43.2658C54.0064 43.2658 56.1412 41.4091 56.1412 39.1186C56.1412 36.8282 54.0064 34.9714 51.3729 34.9714C48.7395 34.9714 46.6047 36.8282 46.6047 39.1186C46.6047 41.4091 48.7395 43.2658 51.3729 43.2658Z" fill="#CCCCCC"/>
<path opacity="0.4" d="M66.9756 43.2658C69.609 43.2658 71.7438 41.4091 71.7438 39.1186C71.7438 36.8282 69.609 34.9714 66.9756 34.9714C64.3422 34.9714 62.2074 36.8282 62.2074 39.1186C62.2074 41.4091 64.3422 43.2658 66.9756 43.2658Z" fill="#CCCCCC"/>
<path d="M35.7702 56.0529C38.4036 56.0529 40.5384 54.1962 40.5384 51.9057C40.5384 49.6153 38.4036 47.7585 35.7702 47.7585C33.1368 47.7585 31.002 49.6153 31.002 51.9057C31.002 54.1962 33.1368 56.0529 35.7702 56.0529Z" fill="#3F3D56"/>
<path opacity="0.7" d="M51.3729 56.0529C54.0064 56.0529 56.1412 54.1962 56.1412 51.9057C56.1412 49.6153 54.0064 47.7585 51.3729 47.7585C48.7395 47.7585 46.6047 49.6153 46.6047 51.9057C46.6047 54.1962 48.7395 56.0529 51.3729 56.0529Z" fill="#3F3D56"/>
<path opacity="0.4" d="M66.9756 56.0529C69.609 56.0529 71.7438 54.1962 71.7438 51.9057C71.7438 49.6153 69.609 47.7585 66.9756 47.7585C64.3422 47.7585 62.2074 49.6153 62.2074 51.9057C62.2074 54.1962 64.3422 56.0529 66.9756 56.0529Z" fill="#3F3D56"/>
<path d="M56.7864 89.9218C59.4198 89.9218 61.5546 88.0651 61.5546 85.7746C61.5546 83.4842 59.4198 81.6274 56.7864 81.6274C54.153 81.6274 52.0182 83.4842 52.0182 85.7746C52.0182 88.0651 54.153 89.9218 56.7864 89.9218Z" fill="#EA7C69"/>
<path d="M125.246 65.1728H114.34L113.775 56.8787C113.775 51.6614 119.202 51.9206 125.201 51.9206H125.246V65.1728Z" fill="#2F2E41"/>
<path d="M119.182 60.439C121.998 60.439 124.281 58.4535 124.281 56.0042C124.281 53.5549 121.998 51.5693 119.182 51.5693C116.366 51.5693 114.083 53.5549 114.083 56.0042C114.083 58.4535 116.366 60.439 119.182 60.439Z" fill="#A0616A"/>
<path d="M96.661 63.136C96.8078 63.7227 96.79 64.2896 96.6414 64.7571L98.4454 70.2693L95.4046 70.9392L93.902 65.2755C93.5435 64.9039 93.2566 64.3947 93.1098 63.808C92.7746 62.4677 93.2977 61.2307 94.2784 61.0452C95.259 60.8596 96.3257 61.7957 96.661 63.136Z" fill="#A0616A"/>
<path d="M119.216 152.222L116.772 152.272L115.41 142.724L119.016 142.65L119.216 152.222Z" fill="#A0616A"/>
<path d="M110.832 156.656C110.832 157.015 111.125 157.306 111.486 157.306H116.337C116.337 157.306 116.814 155.638 118.76 154.919L118.895 157.306H121.397L121.093 153.468C121.093 153.468 121.763 151.415 120.373 150.365C118.983 149.316 120.109 149.462 120.109 149.462L119.562 147.086L115.781 147.473L115.753 151.202L113.918 154.903L111.227 156.06C110.987 156.162 110.832 156.397 110.832 156.656Z" fill="#2F2E41"/>
<path d="M110.278 152L107.835 152.05L106.473 142.502L110.079 142.428L110.278 152Z" fill="#A0616A"/>
<path d="M101.895 156.434C101.895 156.793 102.187 157.084 102.549 157.084H107.399C107.399 157.084 107.877 155.416 109.823 154.697L109.957 157.084H112.459L112.156 153.246C112.156 153.246 112.825 151.193 111.435 150.143C110.045 149.094 111.171 149.24 111.171 149.24L110.624 146.864L106.843 147.251L106.815 150.98L104.98 154.681L102.289 155.838C102.05 155.941 101.895 156.175 101.895 156.434Z" fill="#2F2E41"/>
<path d="M112 84.5535L110.155 86.0182L105.759 91.3889L100.787 121.241L105.599 144.969H110.954L110.33 120.195L114.42 111.895L114.091 144.969H120.365L126.745 103.042C127.435 98.0087 126.132 92.9113 122.999 88.6371C122.921 88.5315 122.843 88.4251 122.763 88.3177C122.683 88.211 122.602 88.1068 122.519 88.0052C117.788 82.1821 112 84.5535 112 84.5535Z" fill="#2F2E41"/>
<path d="M122.519 62.5828L115.462 62.1643L114.34 63.8383L109.207 64.2568L108.566 73.7425C108.566 73.7425 106.32 76.672 107.924 79.8804L108.902 85.0628L105.326 92.3203L120.611 88.4842L122.519 88.0052L125.085 81.1359C125.085 81.1359 128.293 78.4481 126.689 74.5608L126.368 66.0702L123.642 64.5357L122.519 62.5828Z" fill="#EA7C69"/>
<path d="M117.451 62.8386C117.451 62.8386 120.071 67.1454 112.715 71.3981L101.765 79.9512C101.162 80.4224 100.336 80.6136 99.5431 80.4653C98.6125 80.2913 97.873 79.6778 97.6293 78.8775L94.2249 67.6984L97.3523 66.6568L101.454 73.2456L109.182 63.9331L117.451 62.8386Z" fill="#EA7C69"/>
<path d="M124.669 98.924C124.695 98.324 124.875 97.779 125.153 97.3586L124.991 91.6292L128.128 91.6418L127.955 97.4523C128.195 97.8901 128.327 98.4455 128.3 99.0455C128.239 100.416 127.377 101.5 126.374 101.466C125.372 101.433 124.608 100.295 124.669 98.924Z" fill="#A0616A"/>
<path d="M123.892 65.5022C123.892 65.5022 128.867 65.1711 129.101 67.4672C129.234 68.7635 130.137 80.5574 129.989 87.7768C129.875 93.3441 128.103 96.0549 128.103 96.0549L124.901 95.9596L123.892 65.5022Z" fill="#EA7C69"/>
<path d="M113.305 55.7487L113.495 55.7462C113.739 55.0532 113.518 55.6817 114.07 55.8448L114.872 55.3838L117.467 55.3681C118.121 55.3641 118.759 55.5143 119.339 55.7763C119.594 55.8919 119.829 55.9538 119.979 55.8221L120.869 55.0389C120.869 55.0389 119.498 65.9105 119.154 66.6945L120.196 66.5798C120.196 66.5798 120.517 64.6071 120.687 64.5901C120.732 64.5856 120.789 64.6964 120.85 64.8662C121.146 65.6932 121.593 67.2909 122.119 66.5556C122.405 66.1559 122.731 66.1393 123.03 66.6316C123.722 67.7664 125.768 66.3339 126.633 65.2928C126.638 65.2868 126.642 65.284 126.646 65.2846C126.667 65.2877 126.689 65.3264 126.711 65.3872C126.9 65.9137 127.463 66.2709 128.095 66.2242C128.253 66.2125 130.066 67.5924 128.374 66.2128C127.342 65.3711 128.542 63.9793 127.182 61.72C126.384 60.3939 127.999 58.4941 127.983 56.9352C127.961 54.9067 127.454 53.0542 126.143 51.9838C124.774 50.8662 123.657 50.92 121.49 50.6861C118.397 48.6721 114.899 50.3517 113.336 53.6032C112.986 54.3315 113.433 54.8508 113.305 55.7487Z" fill="#2F2E41"/>
</g>
<defs>
<clipPath id="clip0_213_7624">
<rect width="159" height="158" fill="white"/>
</clipPath>
</defs>
</svg>
