<svg width="202" height="160" viewBox="0 0 202 160" fill="none" xmlns="http://www.w3.org/2000/svg">
<g clip-path="url(#clip0_213_7529)">
<path d="M43.6676 49.2661C43.1257 49.2661 42.606 49.4572 42.2228 49.7974C41.8395 50.1376 41.6243 50.599 41.6243 51.0801C41.6243 51.5612 41.8395 52.0226 42.2228 52.3627C42.606 52.7029 43.1257 52.894 43.6676 52.894H69.3526V52.1027C69.3526 51.5403 69.5098 50.9867 69.8103 50.4916C70.1107 49.9965 70.545 49.5754 71.0741 49.2661H43.6676Z" fill="#E6E6E6"/>
<path d="M67.0398 45.1848H58.3555C57.8136 45.1848 57.2938 44.9937 56.9106 44.6535C56.5274 44.3133 56.3121 43.8519 56.3121 43.3708C56.3121 42.8898 56.5274 42.4284 56.9106 42.0882C57.2938 41.748 57.8136 41.5569 58.3555 41.5569H67.0398C67.5817 41.5569 68.1014 41.748 68.4846 42.0882C68.8678 42.4284 69.0831 42.8898 69.0831 43.3708C69.0831 43.8519 68.8678 44.3133 68.4846 44.6535C68.1014 44.9937 67.5817 45.1848 67.0398 45.1848Z" fill="#E6E6E6"/>
<path d="M47.5626 32.2602H13.8472C13.3053 32.2602 12.7855 32.0691 12.4023 31.7289C12.0191 31.3888 11.8038 30.9274 11.8038 30.4463C11.8038 29.9652 12.0191 29.5038 12.4023 29.1636C12.7855 28.8234 13.3053 28.6323 13.8472 28.6323H47.5626C48.1045 28.6323 48.6243 28.8234 49.0075 29.1636C49.3907 29.5038 49.6059 29.9652 49.6059 30.4463C49.6059 30.9274 49.3907 31.3888 49.0075 31.7289C48.6243 32.0691 48.1045 32.2602 47.5626 32.2602Z" fill="#E6E6E6"/>
<path d="M32.876 24.551H28.5338C27.9919 24.551 27.4722 24.3599 27.089 24.0197C26.7058 23.6795 26.4905 23.2182 26.4905 22.7371C26.4905 22.256 26.7058 21.7946 27.089 21.4544C27.4722 21.1142 27.9919 20.9231 28.5338 20.9231H32.876C33.4179 20.9231 33.9376 21.1142 34.3208 21.4544C34.704 21.7946 34.9193 22.256 34.9193 22.7371C34.9193 23.2182 34.704 23.6795 34.3208 24.0197C33.9376 24.3599 33.4179 24.551 32.876 24.551Z" fill="#E6E6E6"/>
<path d="M69.0961 85.7483H37.3122C36.161 85.7472 35.0573 85.3407 34.2433 84.618C33.4293 83.8954 32.9714 82.9156 32.9701 81.8937V37.2612C32.9714 36.2392 33.4293 35.2594 34.2433 34.5368C35.0573 33.8141 36.161 33.4076 37.3122 33.4065H88.0829C89.2341 33.4076 90.3378 33.8141 91.1518 34.5368C91.9659 35.2594 92.4238 36.2392 92.425 37.2612V48.3235H91.9142V37.2612C91.9131 36.3594 91.509 35.4949 90.7908 34.8573C90.0725 34.2197 89.0987 33.861 88.0829 33.86H37.3122C36.2965 33.861 35.3226 34.2197 34.6044 34.8573C33.8861 35.4949 33.4821 36.3594 33.4809 37.2612V81.8937C33.4821 82.7954 33.8861 83.6599 34.6044 84.2975C35.3226 84.9352 36.2965 85.2938 37.3122 85.2948H69.0961V85.7483Z" fill="#CCCCCC"/>
<path d="M33.2256 59.0295H10.0566C8.9054 59.0283 7.80172 58.6218 6.98769 57.8992C6.17367 57.1765 5.71577 56.1968 5.71448 55.1748V18.8823C5.71577 17.8603 6.17367 16.8805 6.98769 16.1579C7.80172 15.4352 8.9054 15.0287 10.0566 15.0276H51.3532C52.5044 15.0287 53.6081 15.4352 54.4221 16.1579C55.2362 16.8805 55.694 17.8603 55.6953 18.8823V33.6331H55.1845V18.8823C55.1833 17.9805 54.7793 17.116 54.0611 16.4784C53.3428 15.8408 52.369 15.4821 51.3532 15.4811H10.0566C9.04084 15.4821 8.06701 15.8408 7.34875 16.4784C6.63049 17.116 6.22647 17.9805 6.22532 18.8823V55.1748C6.22647 56.0765 6.63049 56.941 7.34875 57.5787C8.06701 58.2163 9.04084 58.5749 10.0566 58.576H33.2256V59.0295Z" fill="#CCCCCC"/>
<path d="M136.64 49.2661C137.169 49.5754 137.604 49.9965 137.904 50.4916C138.205 50.9867 138.362 51.5403 138.362 52.1027V52.894H164.047C164.589 52.894 165.109 52.7029 165.492 52.3627C165.875 52.0226 166.09 51.5612 166.09 51.0801C166.09 50.599 165.875 50.1376 165.492 49.7974C165.109 49.4572 164.589 49.2661 164.047 49.2661H136.64Z" fill="#E6E6E6"/>
<path d="M138.631 43.3708C138.632 42.8899 138.847 42.4289 139.231 42.0888C139.614 41.7487 140.133 41.5574 140.675 41.5569H149.359C149.901 41.5569 150.421 41.748 150.804 42.0882C151.187 42.4284 151.402 42.8898 151.402 43.3708C151.402 43.8519 151.187 44.3133 150.804 44.6535C150.421 44.9937 149.901 45.1848 149.359 45.1848H140.675C140.133 45.1843 139.614 44.993 139.231 44.6529C138.847 44.3128 138.632 43.8518 138.631 43.3708Z" fill="#E6E6E6"/>
<path d="M158.109 30.4463C158.109 29.9654 158.325 29.5043 158.708 29.1642C159.091 28.8242 159.61 28.6329 160.152 28.6323H193.867C194.409 28.6323 194.929 28.8234 195.312 29.1636C195.695 29.5038 195.911 29.9652 195.911 30.4463C195.911 30.9274 195.695 31.3888 195.312 31.7289C194.929 32.0691 194.409 32.2602 193.867 32.2602H160.152C159.61 32.2597 159.091 32.0684 158.708 31.7283C158.325 31.3883 158.109 30.9272 158.109 30.4463Z" fill="#E6E6E6"/>
<path d="M172.795 22.7371C172.796 22.2561 173.011 21.7951 173.394 21.455C173.777 21.1149 174.297 20.9236 174.839 20.9231H179.181C179.723 20.9231 180.242 21.1142 180.626 21.4544C181.009 21.7946 181.224 22.256 181.224 22.7371C181.224 23.2182 181.009 23.6795 180.626 24.0197C180.242 24.3599 179.723 24.551 179.181 24.551H174.839C174.297 24.5505 173.777 24.3592 173.394 24.0191C173.011 23.6791 172.796 23.218 172.795 22.7371Z" fill="#E6E6E6"/>
<path d="M138.618 85.7483H170.402C171.553 85.7472 172.657 85.3407 173.471 84.618C174.285 83.8954 174.743 82.9156 174.744 81.8937V37.2612C174.743 36.2392 174.285 35.2594 173.471 34.5368C172.657 33.8141 171.553 33.4076 170.402 33.4065H119.632C118.48 33.4076 117.377 33.8141 116.563 34.5368C115.749 35.2594 115.291 36.2392 115.289 37.2612V48.3235H115.8V37.2612C115.801 36.3594 116.205 35.4949 116.924 34.8573C117.642 34.2197 118.616 33.861 119.632 33.86H170.402C171.418 33.861 172.392 34.2197 173.11 34.8573C173.828 35.4949 174.232 36.3594 174.234 37.2612V81.8937C174.232 82.7954 173.828 83.6599 173.11 84.2975C172.392 84.9352 171.418 85.2938 170.402 85.2948H138.618V85.7483Z" fill="#CCCCCC"/>
<path d="M174.489 59.0295H197.658C198.809 59.0283 199.913 58.6218 200.727 57.8992C201.541 57.1765 201.999 56.1968 202 55.1748V18.8823C201.999 17.8603 201.541 16.8805 200.727 16.1579C199.913 15.4352 198.809 15.0287 197.658 15.0276H156.361C155.21 15.0287 154.106 15.4352 153.292 16.1579C152.478 16.8805 152.02 17.8603 152.019 18.8823V33.6331H152.53V18.8823C152.531 17.9805 152.935 17.116 153.653 16.4784C154.372 15.8408 155.346 15.4821 156.361 15.4811H197.658C198.674 15.4821 199.647 15.8408 200.366 16.4784C201.084 17.116 201.488 17.9805 201.489 18.8823V55.1748C201.488 56.0765 201.084 56.941 200.366 57.5787C199.647 58.2163 198.674 58.5749 197.658 58.576H174.489V59.0295Z" fill="#CCCCCC"/>
<path d="M134.423 48.248H73.1839C72.033 48.2501 70.9299 48.6568 70.1161 49.3793C69.3023 50.1017 68.8441 51.081 68.8418 52.1027V105.952C68.843 106.974 69.3009 107.954 70.1149 108.677C70.929 109.4 72.0327 109.806 73.1839 109.807H134.423C135.574 109.806 136.678 109.4 137.492 108.677C138.306 107.954 138.764 106.974 138.765 105.952V52.1027C138.764 51.0807 138.306 50.1009 137.492 49.3782C136.678 48.6556 135.574 48.2491 134.423 48.248ZM138.255 105.952C138.253 106.854 137.849 107.719 137.131 108.356C136.413 108.994 135.439 109.353 134.423 109.354H73.1839C72.1682 109.353 71.1944 108.994 70.4762 108.356C69.7579 107.719 69.3539 106.854 69.3526 105.952V52.1027C69.3542 51.2011 69.7584 50.3368 70.4765 49.6993C71.1947 49.0617 72.1683 48.7029 73.1839 48.7015H134.423C135.439 48.7026 136.413 49.0613 137.131 49.6989C137.849 50.3365 138.253 51.201 138.255 52.1027V105.952Z" fill="#3F3D56"/>
<path d="M129.601 69.2197H78.006C77.4641 69.2197 76.9443 69.0286 76.5611 68.6884C76.1779 68.3482 75.9626 67.8869 75.9626 67.4058C75.9626 66.9247 76.1779 66.4633 76.5611 66.1231C76.9443 65.7829 77.4641 65.5918 78.006 65.5918H129.601C130.143 65.5918 130.662 65.7829 131.046 66.1231C131.429 66.4633 131.644 66.9247 131.644 67.4058C131.644 67.8869 131.429 68.3482 131.046 68.6884C130.662 69.0286 130.143 69.2197 129.601 69.2197Z" fill="#CCCCCC"/>
<path d="M114.914 61.5105H92.6926C92.1507 61.5105 91.631 61.3194 91.2478 60.9792C90.8646 60.639 90.6493 60.1776 90.6493 59.6965C90.6493 59.2154 90.8646 58.754 91.2478 58.4139C91.631 58.0737 92.1507 57.8826 92.6926 57.8826H114.914C115.456 57.8826 115.976 58.0737 116.359 58.4139C116.742 58.754 116.958 59.2154 116.958 59.6965C116.958 60.1776 116.742 60.639 116.359 60.9792C115.976 61.3194 115.456 61.5105 114.914 61.5105Z" fill="#EA7C69"/>
<path d="M100.1 80.1035H77.8783C77.3364 80.1035 76.8166 79.9124 76.4334 79.5722C76.0502 79.232 75.835 78.7706 75.835 78.2895C75.835 77.8085 76.0502 77.3471 76.4334 77.0069C76.8166 76.6667 77.3364 76.4756 77.8783 76.4756H100.1C100.642 76.4756 101.161 76.6667 101.545 77.0069C101.928 77.3471 102.143 77.8085 102.143 78.2895C102.143 78.7706 101.928 79.232 101.545 79.5722C101.161 79.9124 100.642 80.1035 100.1 80.1035Z" fill="#CCCCCC"/>
<path d="M100.1 88.0395H77.8783C77.3364 88.0395 76.8166 87.8484 76.4334 87.5082C76.0502 87.1681 75.835 86.7067 75.835 86.2256C75.835 85.7445 76.0502 85.2831 76.4334 84.9429C76.8166 84.6027 77.3364 84.4116 77.8783 84.4116H100.1C100.642 84.4116 101.161 84.6027 101.545 84.9429C101.928 85.2831 102.143 85.7445 102.143 86.2256C102.143 86.7067 101.928 87.1681 101.545 87.5082C101.161 87.8484 100.642 88.0395 100.1 88.0395Z" fill="#CCCCCC"/>
<path d="M100.1 95.9756H77.8783C77.3364 95.9756 76.8166 95.7845 76.4334 95.4443C76.0502 95.1041 75.835 94.6427 75.835 94.1616C75.835 93.6805 76.0502 93.2191 76.4334 92.879C76.8166 92.5388 77.3364 92.3477 77.8783 92.3477H100.1C100.642 92.3477 101.161 92.5388 101.545 92.879C101.928 93.2191 102.143 93.6805 102.143 94.1616C102.143 94.6427 101.928 95.1041 101.545 95.4443C101.161 95.7845 100.642 95.9756 100.1 95.9756Z" fill="#CCCCCC"/>
<path d="M127.814 81.6586C129.92 81.6586 131.628 80.1431 131.628 78.2735C131.628 76.404 129.92 74.8884 127.814 74.8884C125.708 74.8884 124.001 76.404 124.001 78.2735C124.001 80.1431 125.708 81.6586 127.814 81.6586Z" fill="#EA7C69"/>
<path d="M127.436 79.5648C127.351 79.5649 127.267 79.5403 127.199 79.4946L127.194 79.4917L126.298 78.8832C126.214 78.8261 126.159 78.7419 126.146 78.6489C126.132 78.556 126.16 78.4619 126.224 78.3875C126.289 78.3131 126.384 78.2644 126.488 78.2521C126.593 78.2398 126.699 78.265 126.783 78.322L127.363 78.7172L128.735 77.1286C128.767 77.0918 128.806 77.0609 128.852 77.0377C128.897 77.0144 128.947 76.9994 128.999 76.9933C129.05 76.9872 129.103 76.9902 129.154 77.0022C129.204 77.0142 129.251 77.0349 129.293 77.0632L129.285 77.0737L129.293 77.0632C129.377 77.1203 129.432 77.2046 129.446 77.2975C129.459 77.3904 129.431 77.4844 129.367 77.5588L127.754 79.4265C127.716 79.4695 127.668 79.5043 127.613 79.5282C127.558 79.5521 127.498 79.5645 127.437 79.5643L127.436 79.5648Z" fill="white"/>
<path d="M30.7048 10.5231C29.5326 10.5231 28.3867 10.2145 27.412 9.63632C26.4374 9.05818 25.6777 8.23643 25.2291 7.27501C24.7805 6.3136 24.6631 5.25568 24.8918 4.23504C25.1205 3.21441 25.685 2.2769 26.5139 1.54106C27.3428 0.805224 28.3989 0.304115 29.5486 0.1011C30.6983 -0.101916 31.89 0.0022804 32.973 0.400514C34.056 0.798748 34.9817 1.47313 35.6329 2.33839C36.2842 3.20364 36.6318 4.2209 36.6318 5.26153C36.63 6.6565 36.005 7.99387 34.8938 8.98025C33.7827 9.96664 32.2762 10.5215 30.7048 10.5231ZM30.7048 0.453493C29.6336 0.453498 28.5865 0.73549 27.6958 1.26381C26.8052 1.79212 26.111 2.54304 25.7011 3.42159C25.2911 4.30015 25.1839 5.26688 25.3929 6.19955C25.6019 7.13222 26.1177 7.98892 26.8751 8.66134C27.6326 9.33375 28.5976 9.79167 29.6483 9.97719C30.6989 10.1627 31.7879 10.0675 32.7775 9.70358C33.7672 9.33967 34.613 8.72341 35.2082 7.93273C35.8033 7.14206 36.1209 6.21247 36.1209 5.26153C36.1193 3.9868 35.5482 2.76469 34.5328 1.86332C33.5174 0.961947 32.1408 0.454928 30.7048 0.453493Z" fill="#CCCCCC"/>
<path d="M30.1429 7.18225C30.0153 7.18244 29.8911 7.1458 29.7891 7.07785L29.7827 7.07363L28.4498 6.16849C28.3881 6.12647 28.3363 6.07408 28.2974 6.01429C28.2585 5.9545 28.2332 5.8885 28.223 5.82004C28.2128 5.75158 28.2179 5.68201 28.238 5.61531C28.2581 5.5486 28.2928 5.48606 28.3401 5.43126C28.3875 5.37646 28.4465 5.33047 28.5138 5.29591C28.5812 5.26136 28.6555 5.23892 28.7326 5.22988C28.8098 5.22084 28.8881 5.22537 28.9633 5.24321C29.0384 5.26106 29.1089 5.29186 29.1706 5.33388L30.0339 5.9216L32.074 3.55885C32.1213 3.50407 32.1803 3.4581 32.2477 3.42356C32.315 3.38902 32.3893 3.36659 32.4664 3.35755C32.5435 3.34851 32.6218 3.35304 32.6969 3.37088C32.772 3.38872 32.8424 3.41951 32.9042 3.46151L32.8917 3.47723L32.9047 3.46163C33.0292 3.54656 33.1106 3.67187 33.1311 3.81006C33.1517 3.94824 33.1096 4.08801 33.0142 4.1987L30.6146 6.97657C30.5591 7.04057 30.4877 7.09236 30.406 7.12793C30.3243 7.16349 30.2344 7.18186 30.1435 7.18163L30.1429 7.18225Z" fill="#CCCCCC"/>
<path d="M68.3016 28.8895C67.1294 28.8895 65.9835 28.5809 65.0088 28.0028C64.0341 27.4246 63.2745 26.6029 62.8259 25.6414C62.3773 24.68 62.26 23.6221 62.4887 22.6015C62.7173 21.5808 63.2818 20.6433 64.1107 19.9075C64.9396 19.1717 65.9957 18.6706 67.1454 18.4676C68.2951 18.2645 69.4868 18.3687 70.5698 18.767C71.6528 19.1652 72.5785 19.8396 73.2297 20.7048C73.881 21.5701 74.2286 22.5874 74.2286 23.628C74.2268 25.023 73.6018 26.3603 72.4906 27.3467C71.3795 28.3331 69.873 28.888 68.3016 28.8895ZM68.3016 18.8199C67.2304 18.82 66.1833 19.102 65.2926 19.6303C64.402 20.1586 63.7078 20.9095 63.2979 21.7881C62.8879 22.6666 62.7807 23.6334 62.9897 24.566C63.1987 25.4987 63.7145 26.3554 64.4719 27.0278C65.2294 27.7002 66.1944 28.1581 67.2451 28.3436C68.2957 28.5292 69.3847 28.4339 70.3743 28.07C71.364 27.7061 72.2098 27.0899 72.805 26.2992C73.4001 25.5085 73.7177 24.5789 73.7177 23.628C73.7161 22.3533 73.145 21.1311 72.1296 20.2298C71.1142 19.3284 69.7375 18.8214 68.3016 18.8199Z" fill="#CCCCCC"/>
<path d="M67.7396 25.5485C67.612 25.5487 67.4878 25.512 67.3857 25.4441L67.3794 25.4398L66.0465 24.5347C65.9218 24.4498 65.8403 24.3245 65.8197 24.1862C65.7991 24.048 65.8412 23.9081 65.9368 23.7975C66.0324 23.6868 66.1736 23.6144 66.3293 23.5961C66.4851 23.5778 66.6426 23.6152 66.7673 23.7001L67.6306 24.2878L69.6707 21.9251C69.718 21.8703 69.777 21.8243 69.8443 21.7898C69.9117 21.7552 69.986 21.7328 70.0631 21.7238C70.1402 21.7147 70.2185 21.7193 70.2936 21.7371C70.3687 21.7549 70.4391 21.7857 70.5008 21.8277L70.4883 21.8434L70.5014 21.8278C70.6258 21.9128 70.7073 22.0381 70.7278 22.1763C70.7484 22.3144 70.7063 22.4542 70.6109 22.5649L68.2113 25.3428C68.1557 25.4068 68.0844 25.4586 68.0027 25.4941C67.921 25.5297 67.8311 25.5481 67.7401 25.5478L67.7396 25.5485Z" fill="#CCCCCC"/>
<path d="M127.814 89.5947C129.92 89.5947 131.628 88.0791 131.628 86.2096C131.628 84.34 129.92 82.8245 127.814 82.8245C125.708 82.8245 124.001 84.34 124.001 86.2096C124.001 88.0791 125.708 89.5947 127.814 89.5947Z" fill="#EA7C69"/>
<path d="M127.436 87.5008C127.351 87.5009 127.267 87.4763 127.199 87.4306L127.194 87.4278L126.298 86.8192C126.257 86.791 126.222 86.7557 126.196 86.7155C126.169 86.6754 126.152 86.631 126.146 86.5849C126.139 86.5389 126.142 86.4921 126.156 86.4473C126.169 86.4024 126.193 86.3604 126.224 86.3235C126.256 86.2867 126.296 86.2558 126.341 86.2326C126.386 86.2093 126.436 86.1942 126.488 86.1882C126.54 86.1821 126.593 86.1851 126.643 86.1971C126.694 86.2091 126.741 86.2298 126.783 86.2581L127.363 86.6532L128.735 85.0646C128.767 85.0278 128.806 84.9969 128.852 84.9737C128.897 84.9505 128.947 84.9354 128.999 84.9293C129.05 84.9232 129.103 84.9263 129.154 84.9383C129.204 84.9503 129.251 84.971 129.293 84.9992L129.285 85.0098L129.293 84.9993C129.377 85.0564 129.432 85.1406 129.446 85.2335C129.459 85.3265 129.431 85.4204 129.367 85.4948L127.754 87.3625C127.716 87.4056 127.668 87.4404 127.613 87.4643C127.558 87.4882 127.498 87.5005 127.437 87.5004L127.436 87.5008Z" fill="white"/>
<path d="M127.814 97.5468C129.92 97.5468 131.628 96.0313 131.628 94.1617C131.628 92.2922 129.92 90.7766 127.814 90.7766C125.708 90.7766 124.001 92.2922 124.001 94.1617C124.001 96.0313 125.708 97.5468 127.814 97.5468Z" fill="#EA7C69"/>
<path d="M127.437 95.453C127.351 95.4531 127.267 95.4285 127.199 95.3828L127.194 95.3799L126.298 94.7714C126.214 94.7143 126.16 94.63 126.146 94.5371C126.132 94.4442 126.161 94.3503 126.225 94.2759C126.289 94.2016 126.384 94.1529 126.488 94.1406C126.593 94.1282 126.699 94.1533 126.783 94.2102L127.363 94.6054L128.735 93.0168C128.767 92.98 128.806 92.9491 128.852 92.9258C128.897 92.9026 128.947 92.8875 128.999 92.8815C129.05 92.8754 129.103 92.8784 129.154 92.8904C129.204 92.9024 129.252 92.9231 129.293 92.9513L129.285 92.9619L129.293 92.9514C129.377 93.0085 129.432 93.0928 129.446 93.1857C129.459 93.2786 129.431 93.3726 129.367 93.447L127.754 95.3147C127.716 95.3577 127.668 95.3925 127.613 95.4164C127.558 95.4403 127.498 95.4527 127.437 95.4525L127.437 95.453Z" fill="white"/>
<path d="M103.809 43.6278C99.7863 43.5669 97.9583 40.8575 97.9585 38.3658C97.9588 35.8742 99.787 33.1651 103.801 33.1047H103.809C107.823 33.1655 109.651 35.8749 109.651 38.3666C109.651 40.8583 107.823 43.5675 103.809 43.6278ZM103.805 33.5582C100.139 33.6151 98.4695 36.0898 98.4693 38.3658C98.4691 40.6428 100.14 43.1187 103.809 43.1743C107.469 43.1192 109.14 40.6435 109.14 38.3666C109.141 36.0906 107.471 33.6159 103.805 33.5582Z" fill="#EA7C69"/>
<path d="M105.135 38.6522C106.16 40.2334 103.346 40.8509 102.269 39.8984L102.539 39.3868C104.29 40.7292 105.832 38.4039 103.158 38.6249V38.0644C105.607 38.2397 104.231 36.0516 102.6 37.346L102.337 36.8345C103.666 35.6098 106.651 37.0907 104.544 38.3147C104.779 38.3635 104.988 38.4827 105.135 38.6522Z" fill="#EA7C69"/>
<path d="M139.819 28.8895C138.647 28.8895 137.501 28.5809 136.526 28.0028C135.552 27.4246 134.792 26.6029 134.343 25.6414C133.895 24.68 133.777 23.6221 134.006 22.6015C134.235 21.5808 134.799 20.6433 135.628 19.9075C136.457 19.1717 137.513 18.6706 138.663 18.4676C139.813 18.2645 141.004 18.3687 142.087 18.767C143.17 19.1652 144.096 19.8396 144.747 20.7048C145.398 21.5701 145.746 22.5874 145.746 23.628C145.744 25.023 145.119 26.3603 144.008 27.3467C142.897 28.3331 141.39 28.888 139.819 28.8895ZM139.819 18.8199C138.748 18.82 137.701 19.102 136.81 19.6303C135.919 20.1586 135.225 20.9095 134.815 21.7881C134.405 22.6666 134.298 23.6334 134.507 24.566C134.716 25.4987 135.232 26.3554 135.989 27.0278C136.747 27.7002 137.712 28.1581 138.763 28.3436C139.813 28.5292 140.902 28.4339 141.892 28.07C142.881 27.7061 143.727 27.0899 144.322 26.2992C144.918 25.5085 145.235 24.5789 145.235 23.628C145.234 22.3533 144.662 21.1311 143.647 20.2298C142.632 19.3284 141.255 18.8214 139.819 18.8199Z" fill="#CCCCCC"/>
<path d="M141.465 24.8089H140.846V25.5653H140.074V24.8089H138.173V24.2864L140.215 21.6907H140.846V24.2593H141.465V24.8089ZM140.074 24.2593V22.7844L138.921 24.2593H140.074Z" fill="#CCCCCC"/>
<path d="M177.01 10.5231C175.837 10.5231 174.691 10.2145 173.717 9.63631C172.742 9.05816 171.982 8.23641 171.534 7.27499C171.085 6.31357 170.968 5.25566 171.197 4.23503C171.425 3.21439 171.99 2.27688 172.819 1.54105C173.648 0.805217 174.704 0.30411 175.853 0.101097C177.003 -0.101916 178.195 0.00228378 179.278 0.400518C180.361 0.798753 181.286 1.47314 181.938 2.33839C182.589 3.20364 182.937 4.2209 182.937 5.26153C182.935 6.6565 182.31 7.99388 181.199 8.98026C180.087 9.96665 178.581 10.5215 177.01 10.5231ZM177.01 0.453494C175.938 0.453505 174.891 0.735501 174.001 1.26382C173.11 1.79214 172.416 2.54306 172.006 3.42162C171.596 4.30017 171.489 5.26691 171.698 6.19957C171.907 7.13224 172.423 7.98894 173.18 8.66135C173.937 9.33376 174.902 9.79168 175.953 9.97719C177.004 10.1627 178.093 10.0675 179.082 9.70358C180.072 9.33967 180.918 8.72341 181.513 7.93273C182.108 7.14205 182.426 6.21247 182.426 5.26153C182.424 3.9868 181.853 2.76468 180.838 1.86331C179.822 0.961939 178.446 0.454922 177.01 0.453494Z" fill="#CCCCCC"/>
<path d="M177.892 4.85616C178.098 4.95682 178.266 5.10799 178.377 5.2915C178.494 5.49013 178.553 5.71195 178.548 5.9363C178.554 6.17209 178.486 6.40465 178.352 6.60845C178.218 6.80501 178.022 6.96211 177.788 7.06006C177.522 7.17119 177.23 7.22613 176.936 7.2206C176.66 7.22038 176.387 7.17899 176.127 7.09816C175.885 7.02887 175.662 6.9169 175.471 6.769L175.735 6.25738C176.077 6.50841 176.504 6.65024 176.948 6.66016C177.176 6.67403 177.402 6.60865 177.577 6.47782C177.718 6.33452 177.795 6.15027 177.794 5.9598C177.793 5.76933 177.714 5.58581 177.571 5.44384C177.49 5.37797 177.396 5.32695 177.294 5.29377C177.191 5.2606 177.082 5.24594 176.973 5.25066C176.807 5.2497 176.642 5.27839 176.489 5.33502C176.337 5.39126 176.201 5.47568 176.09 5.58258H175.612V3.30249H178.346V3.84666H176.384V4.90233C176.616 4.7652 176.89 4.69491 177.169 4.70105C177.421 4.69634 177.67 4.74979 177.892 4.85616Z" fill="#CCCCCC"/>
<path d="M37.8517 118.1C37.6967 117.797 37.6185 117.467 37.6227 117.133C37.6269 116.8 37.7134 116.472 37.8761 116.171C38.0388 115.871 38.2737 115.606 38.5642 115.395C38.8548 115.183 39.194 115.031 39.5579 114.949L40.3322 106.876L44.056 109.484L42.7498 116.751C42.8648 117.302 42.7477 117.872 42.4208 118.353C42.0939 118.833 41.5799 119.19 40.9761 119.357C40.3724 119.523 39.7208 119.487 39.145 119.256C38.5691 119.024 38.109 118.613 37.8517 118.1Z" fill="#FFB8B8"/>
<path d="M40.2467 114.102C39.9787 114.07 39.7318 113.956 39.5495 113.779C39.3671 113.602 39.2609 113.373 39.2497 113.133L38.8185 103.971C38.6636 100.678 39.4186 97.4015 41.0176 94.4269L44.8407 87.3151C45.0968 86.8874 45.4642 86.5201 45.9123 86.2437C46.3604 85.9673 46.8763 85.7897 47.4172 85.7258C47.9422 85.6602 48.4773 85.7081 48.9769 85.8656C49.4766 86.0231 49.9259 86.2855 50.2867 86.6304C50.4698 86.804 50.6342 86.9924 50.7779 87.1931C51.0664 87.6084 51.2334 88.0812 51.2638 88.5684C51.2942 89.0556 51.1871 89.5418 50.9522 89.983L45.0899 104.2L44.6389 113.462C44.6321 113.602 44.5926 113.74 44.5231 113.866C44.4536 113.992 44.3555 114.104 44.2349 114.195C44.1144 114.286 43.9739 114.354 43.8224 114.395C43.671 114.435 43.5117 114.448 43.3545 114.431L40.2619 114.104L40.2467 114.102Z" fill="#EA7C69"/>
<path d="M29.2788 154.133L32.1462 155.25L38.3651 145.964L34.1333 144.315L29.2788 154.133Z" fill="#FFB8B8"/>
<path d="M28.9583 153.017L34.6051 155.217C35.0777 155.401 35.505 155.666 35.8622 155.997C36.2194 156.328 36.4997 156.718 36.6872 157.145C36.8747 157.571 36.9656 158.027 36.9548 158.485C36.944 158.943 36.8316 159.395 36.6242 159.814L36.5728 159.918L27.3274 156.315L28.9583 153.017Z" fill="#2F2E41"/>
<path d="M67.7736 157.223H70.905L72.3946 146.501L67.7731 146.501L67.7736 157.223Z" fill="#FFB8B8"/>
<path d="M66.9749 156.316L73.1417 156.315C73.6577 156.315 74.169 156.406 74.6459 156.581C75.1227 156.756 75.5559 157.013 75.9209 157.337C76.2858 157.661 76.5753 158.046 76.7728 158.469C76.9703 158.892 77.0719 159.346 77.0719 159.804V159.918L66.975 159.918L66.9749 156.316Z" fill="#2F2E41"/>
<path d="M36.2338 154.175C36.1134 154.175 35.9937 154.158 35.8791 154.125L30.5696 152.61C30.2828 152.527 30.0441 152.348 29.9044 152.11C29.7647 151.873 29.7351 151.597 29.8221 151.34L47.4295 101.566L60.6181 99.2703L60.6644 99.3374C69.3836 111.933 72.2941 131.173 74.1404 151.559C74.1631 151.825 74.068 152.088 73.8753 152.293C73.6827 152.498 73.4076 152.628 73.1086 152.656L67.3039 153.172C67.033 153.197 66.7609 153.135 66.5366 152.998C66.3122 152.861 66.1504 152.657 66.0803 152.424L55.4519 119.045C55.431 118.977 55.3868 118.917 55.3254 118.872C55.264 118.827 55.1885 118.8 55.1092 118.795C55.0299 118.79 54.9509 118.807 54.883 118.844C54.8151 118.881 54.7617 118.935 54.7303 119L37.2863 153.558C37.1982 153.741 37.0515 153.897 36.8644 154.006C36.6773 154.116 36.4581 154.175 36.2338 154.175Z" fill="#2F2E41"/>
<path d="M54.2436 81.6353C57.7083 81.6353 60.517 79.1419 60.517 76.0662C60.517 72.9904 57.7083 70.4971 54.2436 70.4971C50.7789 70.4971 47.9702 72.9904 47.9702 76.0662C47.9702 79.1419 50.7789 81.6353 54.2436 81.6353Z" fill="#FFB8B8"/>
<path d="M46.3077 103.04L46.2646 102.96C46.2355 102.906 43.3452 97.4627 43.6141 91.1843C43.7032 89.1235 44.6759 87.1708 46.3334 85.7257C47.9909 84.2807 50.2077 83.4525 52.5303 83.4107C54.6709 83.3735 56.7576 84.0081 58.4229 85.2026C60.0882 86.3971 61.2253 88.075 61.6338 89.9407C62.4393 93.591 62.4192 97.0484 61.5739 100.216L61.5551 100.287L61.4751 100.301L46.3077 103.04Z" fill="#EA7C69"/>
<path d="M78.2922 110.897C77.9207 110.848 77.5658 110.727 77.2525 110.544C76.9391 110.36 76.675 110.118 76.4786 109.833C76.2822 109.549 76.1584 109.23 76.1158 108.899C76.0733 108.568 76.113 108.233 76.2323 107.917L69.0066 102.966L73.4929 101.6L79.6668 106.51C80.2516 106.723 80.7281 107.119 81.0059 107.624C81.2837 108.128 81.3436 108.705 81.1741 109.245C81.0047 109.786 80.6177 110.253 80.0866 110.557C79.5554 110.861 78.9169 110.982 78.2922 110.897Z" fill="#FFB8B8"/>
<path d="M60.5601 99.9827L60.5434 99.9587L52.9259 89.0073C52.6596 88.5846 52.5108 88.1115 52.4917 87.6274C52.4727 87.1434 52.584 86.6623 52.8164 86.224C53.0385 85.7966 53.3737 85.4232 53.7935 85.1356C54.2132 84.848 54.7051 84.6548 55.2272 84.5724C55.4906 84.5298 55.758 84.5091 56.0257 84.5106C56.5753 84.5202 57.1135 84.6516 57.5913 84.8928C58.0692 85.1339 58.4716 85.4772 58.7621 85.8915L69.0496 97.9663L77.5759 103.319C77.7051 103.4 77.814 103.504 77.8959 103.624C77.9778 103.745 78.0308 103.879 78.0516 104.018C78.0725 104.157 78.0607 104.299 78.0171 104.434C77.9734 104.569 77.8988 104.694 77.798 104.803L75.813 106.933C75.6395 107.121 75.3962 107.247 75.1271 107.289C74.858 107.331 74.5808 107.286 74.3455 107.163L60.5601 99.9827Z" fill="#EA7C69"/>
<path d="M53.1216 75.7205C53.584 75.0453 54.6043 74.8546 55.4902 74.9316C56.376 75.0086 57.2375 75.285 58.1276 75.2789C60.5991 75.2619 62.5068 72.5878 61.4677 70.5971C60.6155 68.9644 58.4873 68.2475 56.562 67.6849C52.5253 66.5052 47.8883 65.3717 44.2253 67.2845C43.058 67.9121 42.1006 68.805 41.452 69.8709C40.8034 70.9368 40.4871 72.1372 40.5358 73.3479C40.6182 74.8533 41.2676 76.3996 40.7184 77.8257C40.0847 79.471 38.0756 80.3537 36.177 80.7807C32.8487 81.5292 29.3395 81.4087 25.9904 82.08C22.6413 82.7514 19.2094 84.534 18.3066 87.4748C17.7136 89.4064 18.3324 91.4858 19.3571 93.2692C20.4025 95.0888 21.8554 96.6997 23.6267 98.0034C25.398 99.3071 27.4504 100.276 29.6583 100.851C31.8662 101.426 34.183 101.595 36.4669 101.347C38.7508 101.099 40.9537 100.44 42.9407 99.4101C46.9895 97.3113 49.9126 93.7642 51.6553 89.9002C52.6434 87.6463 53.339 85.2997 53.7287 82.906C54.119 80.6652 53.7878 78.4007 53.0809 76.2218C53.0475 76.1405 53.0338 76.0537 53.0408 75.9673C53.0479 75.8809 53.0754 75.7968 53.1216 75.7205Z" fill="#2F2E41"/>
<path d="M97.5703 160H0.25542C0.187678 160 0.122711 159.976 0.0748105 159.933C0.02691 159.891 0 159.833 0 159.773C0 159.713 0.02691 159.655 0.0748105 159.613C0.122711 159.57 0.187678 159.546 0.25542 159.546H97.5703C97.638 159.546 97.703 159.57 97.7509 159.613C97.7988 159.655 97.8257 159.713 97.8257 159.773C97.8257 159.833 97.7988 159.891 97.7509 159.933C97.703 159.976 97.638 160 97.5703 160Z" fill="#3F3D56"/>
</g>
<defs>
<clipPath id="clip0_213_7529">
<rect width="202" height="160" fill="white"/>
</clipPath>
</defs>
</svg>
