<svg width="201" height="151" viewBox="0 0 201 151" fill="none" xmlns="http://www.w3.org/2000/svg">
<g opacity="0.2">
<mask id="mask0_3_5698" style="mask-type:alpha" maskUnits="userSpaceOnUse" x="0" y="0" width="201" height="151">
<path opacity="0.48" fill-rule="evenodd" clip-rule="evenodd" d="M0.5 83.3253C0.5 100.599 6.72724 116.34 16.9746 128.236C28.7306 141.888 45.778 150.471 64.7803 150.5C73.085 150.512 81.0259 148.88 88.3199 145.901C92.0913 144.361 96.3124 144.537 99.9651 146.363C104.25 148.502 109.048 149.701 114.114 149.701C116.207 149.701 118.256 149.495 120.239 149.103C125.897 147.991 131.047 145.358 135.276 141.628C137.934 139.284 141.338 138.105 144.817 138.109H144.876C156.371 138.109 167.049 134.471 175.914 128.236C183.84 122.669 190.312 115.029 194.624 106.059C198.384 98.2421 200.5 89.4117 200.5 80.0658C200.5 48.0113 175.594 22.0222 144.876 22.0222C141.744 22.0222 138.676 22.2982 135.683 22.8132C127.757 9.42503 113.565 0.5 97.3743 0.5C90.5388 0.5 84.0585 2.0907 78.2578 4.94218C72.7413 7.64514 67.8365 11.4859 63.8243 16.1667C50.2006 16.3933 37.6033 21.0375 27.2929 28.7881C11.0631 40.9813 0.5 60.8676 0.5 83.3253Z" fill="url(#paint0_linear_3_5698)"/>
</mask>
<g mask="url(#mask0_3_5698)">
<rect x="0.5" y="0.5" width="200" height="150" fill="#00B33C"/>
</g>
</g>
<path opacity="0.05" d="M122.586 86.4132C121.65 87.5269 120.638 87.5082 120.035 87.3512L120.058 86.7745C120.058 86.7745 122.549 85.6359 122.485 85.8751C122.462 85.9648 122.509 86.1803 122.586 86.4132Z" fill="#FF5630"/>
<path opacity="0.05" d="M129.414 87.6737C127.824 88.5931 126.891 87.5155 126.674 87.2103C126.807 86.8603 127.008 86.2922 126.967 86.1303C126.907 85.8898 129.394 87.0284 129.394 87.0284L129.414 87.6737Z" fill="#FF5630"/>
<path opacity="0.05" d="M127.709 78.5015C127.709 78.5015 129.223 77.6295 129.553 78.0219C129.883 78.4143 127.709 78.5015 127.709 78.5015Z" fill="#FF5630"/>
<path opacity="0.05" d="M128.623 78.9812C128.623 78.9812 128.374 79.1058 128.923 79.2652C129.472 79.4247 128.623 78.9812 128.623 78.9812Z" fill="#FF5630"/>
<path opacity="0.05" d="M119.472 76.5831C119.421 76.5981 120.732 77.4676 121.915 76.7476C121.91 76.7476 119.767 76.4934 119.472 76.5831Z" fill="#FF5630"/>
<path opacity="0.05" d="M121.85 78.2462C121.85 78.2462 121.491 78.9513 120.756 79.0559C120.021 79.1606 121.85 78.2462 121.85 78.2462Z" fill="#FF5630"/>
<path opacity="0.05" d="M126.66 79.7759C126.66 79.7759 128.384 82.5165 128.054 83.163C127.724 83.8095 126.66 79.7759 126.66 79.7759Z" fill="#FF5630"/>
<path opacity="0.05" d="M123.259 90.6734C123.259 90.8266 123.259 90.9698 123.244 91.0882C123.199 91.6425 121.835 91.4332 121.835 91.4332C120.589 91.6064 120.141 91.0085 119.992 90.4367C119.946 90.2509 119.923 90.0601 119.924 89.8686C119.923 89.7545 119.931 89.6404 119.946 89.5273V89.4139C120.215 89.333 120.506 89.3924 120.721 89.5721C121.275 90.0218 122.01 89.6768 122.01 89.6768C122.01 89.6768 122.55 89.7216 122.758 89.901C122.875 90.0019 123.068 89.759 123.215 89.5273C123.224 89.6768 123.237 89.9471 123.246 90.2361C123.256 90.3843 123.259 90.5338 123.259 90.6734Z" fill="#FF5630"/>
<path opacity="0.05" d="M121.071 90.641C121.071 90.641 120.697 91.0073 119.992 90.4417C119.946 90.256 119.923 90.0651 119.924 89.8737C120.284 90.1477 120.952 90.641 121.071 90.641Z" fill="#FF5630"/>
<path opacity="0.05" d="M123.258 90.6734C123.197 90.7208 123.119 90.7407 123.042 90.7284C122.965 90.7162 122.897 90.6728 122.854 90.6086C122.999 90.498 123.132 90.3728 123.252 90.2349C123.256 90.3843 123.258 90.5338 123.258 90.6734Z" fill="#FF5630"/>
<path opacity="0.05" d="M126.182 90.9301C126.182 91.0846 126.182 91.2278 126.196 91.3449C126.24 91.9005 127.605 91.69 127.605 91.69C128.85 91.8644 129.299 91.2664 129.447 90.6934C129.52 90.396 129.536 90.0873 129.493 89.784V89.6707C129.224 89.5911 128.933 89.6504 128.717 89.8289C128.163 90.2786 127.429 89.9335 127.429 89.9335C127.429 89.9335 126.89 89.9796 126.681 90.159C126.564 90.2599 126.371 90.017 126.226 89.7853C126.217 89.9348 126.202 90.2051 126.193 90.4941C126.183 90.6398 126.181 90.7893 126.182 90.9301Z" fill="#FF5630"/>
<path opacity="0.05" d="M128.369 90.8953C128.369 90.8953 128.743 91.2615 129.447 90.6959C129.494 90.5107 129.517 90.3203 129.516 90.1292C129.155 90.402 128.487 90.8953 128.369 90.8953Z" fill="#FF5630"/>
<path opacity="0.05" d="M126.182 90.9301C126.243 90.9774 126.321 90.9973 126.398 90.9851C126.474 90.9728 126.542 90.9294 126.586 90.8653C126.44 90.7549 126.307 90.6296 126.187 90.4916C126.183 90.6398 126.181 90.7893 126.182 90.9301Z" fill="#FF5630"/>
<g opacity="0.05">
<path d="M133.674 44.7788C133.7 44.7215 133.725 44.6642 133.748 44.6081C133.772 44.5521 133.781 44.5209 133.795 44.4761C133.749 44.5747 133.708 44.6757 133.674 44.7788Z" fill="#FF5630"/>
</g>
<path fill-rule="evenodd" clip-rule="evenodd" d="M66.1629 116.942C65.861 116.578 65.7226 116.106 65.7805 115.638L71.2791 70.646L71.735 66.9089C71.8407 66.0489 72.5678 65.4007 73.4342 65.3941L89.54 65.2869C90.0033 65.2841 90.446 65.0948 90.768 64.7617C91.0901 64.4286 91.2644 63.9799 91.2517 63.5168L91.2454 63.3461C91.2296 62.879 91.404 62.4255 91.7288 62.0894C92.0536 61.7534 92.5009 61.5635 92.9683 61.5635H109.893C110.843 61.5635 111.613 62.3325 111.615 63.2826C111.615 63.36 111.61 63.4374 111.6 63.5143C111.536 63.9992 111.68 64.4888 111.997 64.8609C112.315 65.2331 112.776 65.4528 113.265 65.4651L129.519 65.8799C130.019 65.8922 130.489 66.1214 130.807 66.5079C131.124 66.8944 131.258 67.4 131.173 67.893L123.047 115.355L122.894 116.252C122.856 116.481 122.771 116.7 122.645 116.895L66.1629 116.942Z" fill="#004B50"/>
<rect x="115.215" y="52.0316" width="9.51728" height="32.3027" transform="rotate(34.64 115.215 52.0316)" fill="white"/>
<rect x="115.779" y="53.2908" width="6.71903" height="6.71903" transform="rotate(34.804 115.779 53.2908)" fill="#FFAB00"/>
<rect opacity="0.5" x="111.457" y="59.9395" width="6.72812" height="6.72812" transform="rotate(34.64 111.457 59.9395)" fill="#FFAB00"/>
<rect opacity="0.3" x="106.838" y="66.6226" width="6.72813" height="6.72813" transform="rotate(34.64 106.838 66.6226)" fill="#FFAB00"/>
<rect x="104.152" y="50.3672" width="9.51729" height="32.1806" transform="rotate(16.29 104.152 50.3672)" fill="white"/>
<rect x="105.352" y="51.2588" width="6.72812" height="6.72812" transform="rotate(16.29 105.352 51.2588)" fill="#FF5630"/>
<rect opacity="0.5" x="103.072" y="59.0553" width="6.72812" height="6.72812" transform="rotate(16.29 103.072 59.0553)" fill="#FF5630"/>
<rect opacity="0.3" x="100.793" y="66.8507" width="6.72813" height="6.72813" transform="rotate(16.29 100.793 66.8507)" fill="#FF5630"/>
<rect x="97.6797" y="50.8542" width="9.51729" height="32.1806" transform="rotate(4.6 97.6797 50.8542)" fill="white"/>
<rect x="99.0312" y="51.485" width="6.72812" height="6.72812" transform="rotate(4.6 99.0312 51.485)" fill="#00B8D9"/>
<rect opacity="0.5" x="98.3789" y="59.5798" width="6.72812" height="6.72812" transform="rotate(4.6 98.3789 59.5798)" fill="#00B8D9"/>
<rect opacity="0.3" x="97.7266" y="67.6772" width="6.72812" height="6.72812" transform="rotate(4.6 97.7266 67.6772)" fill="#00B8D9"/>
<rect x="93.4121" y="52.1439" width="9.51728" height="32.1806" transform="rotate(-2.61 93.4121 52.1439)" fill="white"/>
<rect x="94.8301" y="52.5984" width="6.72813" height="6.72812" transform="rotate(-2.61 94.8301 52.5984)" fill="#00B33C"/>
<rect opacity="0.5" x="95.4629" y="60.4552" width="6.73653" height="6.73653" transform="rotate(-2.86241 95.4629 60.4552)" fill="#00B33C"/>
<rect opacity="0.3" x="95.5684" y="68.827" width="6.72812" height="6.72813" transform="rotate(-2.61 95.5684 68.827)" fill="#00B33C"/>
<path d="M97.4498 94.5525L88.9939 97.8238L76.6351 102.601C76.168 101.729 75.4803 100.551 74.6295 99.1442C71.7021 94.2934 66.8587 86.7481 62.546 80.1171C57.6877 72.6428 53.5059 66.3357 53.5059 66.3357L56.533 65.4637L81.2605 58.2847L97.4498 94.5525Z" fill="#F4F6F8"/>
<path opacity="0.1" d="M97.4488 94.5525L88.9929 97.8237C84.2692 98.8079 79.4487 99.2509 74.6248 99.1442C71.6973 94.2934 66.854 86.7481 62.5413 80.1171L56.5332 65.4588L81.2595 58.2847L97.4488 94.5525Z" fill="black"/>
<path d="M103.741 92.5171C103.741 92.5171 90.605 100.288 70.9924 98.5302L55.3574 60.4112L62.8504 59.1231L88.7539 54.6747L103.453 91.7759L103.741 92.5171Z" fill="#00B33C"/>
<path opacity="0.1" d="M103.448 91.7809C100.354 91.9329 96.7755 91.9179 93.1754 91.4882C89.2788 91.0297 85.3597 90.0855 82 88.3539C79.1909 86.9077 76.7892 85.3343 74.6951 83.447C69.2476 78.5476 65.8767 71.5392 62.8496 59.1281L88.7531 54.6797L103.448 91.7809Z" fill="#FF5630"/>
<path d="M113.084 89.6495C113.084 89.6495 103.401 91.5455 93.5452 90.3782C89.6486 89.9198 85.7296 88.9756 82.3699 87.244C79.5608 85.7977 77.1603 84.2244 75.065 82.3371C68.3232 76.2717 64.7629 66.9762 61.0918 48.2045C61.0918 48.2045 77.189 52.0898 93.1067 43.5791C93.1018 43.5853 98.4671 77.0677 113.084 89.6495Z" fill="white"/>
<g opacity="0.3">
<path d="M69.418 55.0957C69.418 55.0957 82.508 54.3557 86.1629 51.5342L86.7173 53.3156C86.7173 53.3156 78.0682 57.1312 69.418 57.1773V55.0957Z" fill="#00B33C"/>
<path d="M69.418 63.8904C69.418 63.8904 82.0919 63.1966 91.6677 58.5712L91.9916 59.3112C91.9916 59.3112 84.3927 63.7472 69.418 64.9082V63.8904Z" fill="#00B33C"/>
<path d="M70.4385 67.3175C70.4385 67.3175 83.1124 66.6236 92.687 61.9983L93.0109 62.7382C93.0109 62.7382 85.412 67.173 70.4385 68.3352V67.3175Z" fill="#00B33C"/>
<path d="M71.4574 70.7494C71.4574 70.7494 84.1313 70.0555 93.7071 65.4302L94.0298 66.1701C94.0298 66.1701 86.4309 70.6061 71.4574 71.7671V70.7494Z" fill="#00B33C"/>
<path d="M72.4775 74.1814C72.4775 74.1814 85.1514 73.4875 94.726 68.8622L95.0499 69.6021C95.0499 69.6021 87.451 74.0381 72.4775 75.1991V74.1814Z" fill="#00B33C"/>
<path d="M73.4963 77.6145C73.4963 77.6145 86.1703 76.9206 95.7461 72.2953L96.0687 73.0352C96.0687 73.0352 88.4699 77.47 73.4963 78.6323V77.6145Z" fill="#00B33C"/>
</g>
<path d="M162.612 120.227C162.612 120.227 157.345 119.909 157.966 123.6C157.966 123.6 157.841 124.252 158.434 124.548C158.434 124.548 158.443 124.274 158.973 124.368C159.163 124.4 159.355 124.409 159.546 124.395C159.805 124.378 160.05 124.276 160.245 124.106C160.245 124.106 161.726 123.494 162.302 121.075C162.302 121.075 162.728 120.547 162.71 120.411L161.822 120.785C161.822 120.785 162.126 121.427 161.887 121.958C161.887 121.958 161.858 120.809 161.688 120.837C161.653 120.837 161.226 121.059 161.226 121.059C161.226 121.059 161.748 122.18 161.35 122.987C161.35 122.987 161.5 121.611 161.059 121.14L160.436 121.505C160.436 121.505 161.046 122.659 160.633 123.6C160.633 123.6 160.738 122.157 160.304 121.593L159.737 122.036C159.737 122.036 160.311 123.173 159.961 123.954C159.961 123.954 159.915 122.272 159.614 122.145C159.614 122.145 159.115 122.583 159.043 122.768C159.043 122.768 159.435 123.593 159.191 124.029C159.191 124.029 159.042 122.908 158.92 122.908C158.92 122.908 158.421 123.655 158.374 124.153C158.374 124.153 158.395 123.396 158.8 122.832C158.515 122.886 158.252 123.023 158.043 123.224C158.043 123.224 158.12 122.698 158.922 122.654C158.922 122.654 159.331 122.091 159.439 122.056C159.439 122.056 158.642 121.99 158.159 122.204C158.159 122.204 158.585 121.706 159.586 121.934L160.146 121.478C160.146 121.478 159.095 121.333 158.651 121.493C158.651 121.493 159.163 121.054 160.296 121.368L160.905 121.004C160.905 121.004 160.011 120.811 159.478 120.88C159.478 120.88 160.04 120.576 161.085 120.905L161.52 120.709C161.52 120.709 160.864 120.584 160.672 120.56C160.481 120.535 160.469 120.487 160.469 120.487C160.885 120.417 161.312 120.465 161.701 120.624C161.701 120.624 162.627 120.285 162.612 120.227Z" fill="#00B33C"/>
<path d="M165.065 108.043C165.065 108.043 162.096 107.863 162.449 109.945C162.412 110.161 162.518 110.377 162.712 110.479C162.712 110.479 162.718 110.325 163.017 110.377C163.124 110.395 163.232 110.4 163.34 110.392C163.485 110.383 163.623 110.326 163.733 110.23C163.733 110.23 164.568 109.885 164.893 108.521C164.893 108.521 165.134 108.223 165.124 108.147L164.625 108.36C164.625 108.36 164.796 108.723 164.661 109.023C164.661 109.023 164.645 108.374 164.549 108.389C164.529 108.389 164.289 108.513 164.289 108.513C164.289 108.513 164.583 109.136 164.361 109.601C164.361 109.601 164.446 108.825 164.197 108.558L163.844 108.765C163.844 108.765 164.188 109.415 163.955 109.946C163.955 109.946 164.015 109.131 163.769 108.815L163.451 109.064C163.451 109.064 163.773 109.706 163.575 110.145C163.575 110.145 163.549 109.197 163.38 109.126C163.259 109.229 163.15 109.346 163.057 109.474C163.057 109.474 163.279 109.94 163.142 110.185C163.142 110.185 163.057 109.554 162.988 109.551C162.988 109.551 162.709 109.968 162.681 110.255C162.694 109.989 162.777 109.731 162.921 109.508C162.76 109.538 162.611 109.615 162.494 109.729C162.494 109.729 162.537 109.433 162.992 109.408C162.992 109.408 163.223 109.09 163.284 109.07C163.284 109.07 162.834 109.033 162.561 109.154C162.561 109.154 162.802 108.875 163.366 109.002L163.682 108.744C163.682 108.744 163.089 108.663 162.839 108.753C162.839 108.753 163.128 108.503 163.767 108.685L164.111 108.48C163.846 108.422 163.575 108.399 163.305 108.411C163.305 108.411 163.622 108.239 164.21 108.425L164.46 108.315C164.46 108.315 164.086 108.242 163.981 108.231C163.877 108.219 163.867 108.19 163.867 108.19C164.101 108.151 164.342 108.177 164.562 108.267C164.562 108.267 165.075 108.075 165.065 108.043Z" fill="#00B33C"/>
<path d="M147.54 109.849C147.54 109.849 143.955 109.632 144.379 112.145C144.333 112.406 144.462 112.666 144.696 112.79C144.696 112.79 144.696 112.603 145.07 112.665C145.199 112.687 145.33 112.693 145.46 112.684C145.636 112.672 145.803 112.603 145.936 112.487C145.936 112.487 146.943 112.071 147.336 110.424C147.336 110.424 147.626 110.066 147.614 109.972L147.002 110.231C147.002 110.231 147.209 110.667 147.046 111.03C147.046 111.03 147.026 110.247 146.91 110.265C146.886 110.265 146.596 110.417 146.596 110.417C146.596 110.417 146.951 111.177 146.683 111.73C146.683 111.73 146.785 110.793 146.485 110.472L146.059 110.721C146.059 110.721 146.474 111.507 146.192 112.147C146.192 112.147 146.265 111.164 145.969 110.777L145.583 111.078C145.583 111.078 145.974 111.852 145.735 112.384C145.735 112.384 145.705 111.239 145.5 111.153C145.5 111.153 145.162 111.451 145.111 111.573C145.111 111.573 145.378 112.135 145.212 112.431C145.212 112.431 145.11 111.669 145.026 111.665C145.026 111.665 144.691 112.171 144.653 112.516C144.669 112.196 144.769 111.886 144.943 111.616C144.749 111.653 144.57 111.747 144.428 111.884C144.428 111.884 144.481 111.527 145.026 111.496C145.026 111.496 145.304 111.112 145.379 111.09C145.379 111.09 144.836 111.043 144.507 111.189C144.507 111.189 144.796 110.853 145.477 111.006L145.858 110.695C145.858 110.695 145.145 110.597 144.841 110.705C144.841 110.705 145.189 110.407 145.962 110.625L146.377 110.376C146.377 110.376 145.768 110.245 145.404 110.292C145.404 110.292 145.787 110.085 146.497 110.31L146.794 110.176C146.794 110.176 146.348 110.089 146.217 110.076C146.086 110.062 146.08 110.026 146.08 110.026C146.363 109.978 146.653 110.01 146.919 110.118C146.919 110.118 147.551 109.887 147.54 109.849Z" fill="#00B33C"/>
<rect x="116.389" y="52.5891" width="21.2607" height="38.0467" rx="4.73723" transform="rotate(-71.99 116.389 52.5891)" fill="white"/>
<g opacity="0.24">
<path d="M130.913 43.6279C130.913 45.7854 129.164 47.5345 127.006 47.5345C124.849 47.5345 123.1 45.7854 123.1 43.6279C123.1 41.4703 124.849 39.7213 127.006 39.7213C129.164 39.7213 130.913 41.4703 130.913 43.6279Z" fill="#00B33C"/>
<path d="M136.353 42.9246L136.684 41.907L152.87 47.1693L152.539 48.187L136.353 42.9246Z" fill="#00B33C"/>
<path d="M135.509 45.5191L135.84 44.5015L144.086 47.1821L143.755 48.1998L135.509 45.5191Z" fill="#00B33C"/>
<path d="M134.664 48.1153L134.995 47.0977L148.331 51.4334L148 52.451L134.664 48.1153Z" fill="#00B33C"/>
<path d="M133.821 50.7105L134.152 49.6928L150.338 54.9552L150.007 55.9729L133.821 50.7105Z" fill="#00B33C"/>
</g>
<rect opacity="0.5" x="144" y="59.214" width="2.06914" height="4.71006" transform="rotate(-71.99 144 59.214)" fill="#00B33C"/>
<rect x="113.068" y="89.509" width="20.9584" height="32.6269" rx="4" transform="rotate(-57.2648 113.068 89.509)" fill="white"/>
<path d="M130.125 95.1543L137.109 84.1625L138.189 84.8486L131.205 95.8404L130.125 95.1543Z" fill="#F4F6F8"/>
<path d="M132.432 96.6187L139.415 85.6269L140.495 86.313L133.512 97.3048L132.432 96.6187Z" fill="#F4F6F8"/>
<path d="M117.137 88.2793L120.317 83.2744L121.494 84.0226L118.314 89.0275L117.137 88.2793Z" fill="#C4CDD5"/>
<path d="M120.901 89.2932L127.884 78.3014L128.964 78.9875L121.98 89.9793L120.901 89.2932Z" fill="#C4CDD5"/>
<path d="M123.207 90.7574L130.191 79.7656L131.271 80.4517L124.287 91.4435L123.207 90.7574Z" fill="#C4CDD5"/>
<path d="M125.514 92.2241L132.497 81.2323L133.577 81.9184L126.593 92.9102L125.514 92.2241Z" fill="#C4CDD5"/>
<path d="M127.9 94.349L134.932 83.4099L136.007 84.1008L128.975 95.0399L127.9 94.349Z" fill="#C4CDD5"/>
<path d="M142.117 90.3747L143.926 87.5285L146.772 89.3369L144.963 92.1831L142.117 90.3747Z" fill="#C4CDD5"/>
<path d="M112.699 70.8167L93.6291 71.0223C92.9153 71.0298 92.3404 71.6102 92.3398 72.324V73.8999C92.3393 74.6066 91.7756 75.1841 91.0692 75.2016L77.309 75.5318C76.7089 75.5468 76.1763 75.1496 76.0196 74.5701L75.3731 72.1945C75.2181 71.6214 74.6949 71.2258 74.1012 71.2328L55.7207 71.4309C55.3395 71.4346 54.9792 71.6052 54.7347 71.8976C54.4902 72.19 54.3862 72.5749 54.45 72.9506L61.8446 116.471C61.9506 117.096 62.4905 117.553 63.124 117.556L121.192 117.805C121.581 117.807 121.95 117.634 122.199 117.334C122.447 117.035 122.549 116.64 122.476 116.258L113.99 71.8743C113.872 71.2557 113.328 70.8104 112.699 70.8167Z" fill="url(#paint1_linear_3_5698)"/>
<g opacity="0.2">
<path d="M162.711 124.87C162.711 125.218 161.042 125.5 158.984 125.5C156.926 125.5 155.257 125.218 155.257 124.87C155.257 124.522 156.926 124.239 158.984 124.239C161.042 124.239 162.711 124.522 162.711 124.87Z" fill="#00B33C"/>
<path d="M165.123 110.66C165.123 110.856 164.182 111.015 163.022 111.015C161.861 111.015 160.92 110.856 160.92 110.66C160.92 110.464 161.861 110.305 163.022 110.305C164.182 110.305 165.123 110.464 165.123 110.66Z" fill="#00B33C"/>
<path d="M147.608 113.009C147.608 113.246 146.472 113.438 145.071 113.438C143.67 113.438 142.533 113.246 142.533 113.009C142.533 112.773 143.67 112.581 145.071 112.581C146.472 112.581 147.608 112.773 147.608 113.009Z" fill="#00B33C"/>
<path d="M52.3497 108.277C52.3497 108.43 51.4456 108.554 50.3303 108.554C49.2151 108.554 48.311 108.43 48.311 108.277C48.311 108.123 49.2151 107.999 50.3303 107.999C51.4456 107.999 52.3497 108.123 52.3497 108.277Z" fill="#00B33C"/>
<path d="M44.6149 109.06C44.6149 109.214 43.7108 109.338 42.5956 109.338C41.4803 109.338 40.5763 109.214 40.5763 109.06C40.5763 108.907 41.4803 108.782 42.5956 108.782C43.7108 108.782 44.6149 108.907 44.6149 109.06Z" fill="#00B33C"/>
<path d="M47.1264 111.294C47.1264 111.403 46.4839 111.491 45.6913 111.491C44.8988 111.491 44.2563 111.403 44.2563 111.294C44.2563 111.185 44.8988 111.097 45.6913 111.097C46.4839 111.097 47.1264 111.185 47.1264 111.294Z" fill="#00B33C"/>
<path d="M39.0986 111.097C39.0986 111.206 38.4561 111.294 37.6636 111.294C36.871 111.294 36.2285 111.206 36.2285 111.097C36.2285 110.988 36.871 110.9 37.6636 110.9C38.4561 110.9 39.0986 110.988 39.0986 111.097Z" fill="#00B33C"/>
</g>
<path d="M36.8728 110.649C36.7825 110.575 36.7169 110.475 36.6847 110.363C36.6529 110.247 36.7084 110.125 36.8167 110.073C36.9413 110.027 37.0659 110.11 37.1655 110.198C37.2652 110.285 37.3785 110.377 37.5031 110.356C37.3686 110.234 37.3081 110.05 37.3437 109.872C37.3488 109.836 37.3639 109.802 37.3873 109.774C37.4545 109.702 37.5766 109.733 37.6576 109.79C37.9067 109.97 37.9852 110.317 37.9864 110.631C37.9989 110.516 37.9989 110.4 37.9864 110.285C37.9798 110.167 38.032 110.054 38.126 109.982C38.1866 109.949 38.255 109.933 38.324 109.935C38.4398 109.918 38.5571 109.952 38.6467 110.027C38.7339 110.146 38.7288 110.309 38.6342 110.422C38.5388 110.529 38.4259 110.619 38.3004 110.688C38.2051 110.746 38.1238 110.824 38.0624 110.916C38.0549 110.929 38.049 110.942 38.045 110.956H37.32C37.1577 110.874 37.0073 110.771 36.8728 110.649Z" fill="#00B33C"/>
<path d="M49.5105 107.93C49.42 107.857 49.3543 107.758 49.3224 107.646C49.2904 107.531 49.3454 107.409 49.4532 107.356C49.5777 107.31 49.7023 107.393 49.802 107.481C49.9016 107.568 50.0137 107.663 50.142 107.644C50.0075 107.523 49.9465 107.34 49.9813 107.162C49.9869 107.125 50.0024 107.091 50.0262 107.063C50.0934 106.991 50.2155 107.022 50.2965 107.078C50.5519 107.259 50.6241 107.607 50.6254 107.92C50.6378 107.805 50.6378 107.688 50.6254 107.573C50.6141 107.456 50.6606 107.342 50.7499 107.266C50.8109 107.234 50.8791 107.218 50.948 107.22C51.0636 107.204 51.1806 107.237 51.2707 107.311C51.3582 107.431 51.3525 107.594 51.257 107.707C51.1622 107.815 51.0497 107.905 50.9243 107.974C50.829 108.031 50.7477 108.108 50.6864 108.201C50.6791 108.214 50.6733 108.228 50.669 108.242H49.9602C49.7967 108.159 49.6453 108.054 49.5105 107.93Z" fill="#00B33C"/>
<path d="M45.2989 110.649C45.2087 110.574 45.1428 110.475 45.1096 110.363C45.0778 110.247 45.1333 110.125 45.2416 110.073C45.3662 110.027 45.4907 110.11 45.5904 110.198C45.6901 110.285 45.8009 110.379 45.9305 110.362C45.7962 110.24 45.7353 110.057 45.7698 109.879C45.7753 109.842 45.7908 109.808 45.8146 109.78C45.8819 109.708 46.004 109.739 46.085 109.796C46.3403 109.976 46.4113 110.323 46.4138 110.637C46.4263 110.522 46.4263 110.406 46.4138 110.291C46.404 110.174 46.453 110.059 46.5446 109.985C46.6052 109.951 46.6736 109.935 46.7427 109.937C46.8584 109.921 46.9757 109.954 47.0653 110.029C47.1527 110.148 47.147 110.312 47.0516 110.424C46.9566 110.531 46.8442 110.621 46.719 110.691C46.6237 110.748 46.5425 110.826 46.4811 110.919C46.4736 110.931 46.4677 110.945 46.4637 110.959H45.7411C45.5806 110.875 45.4319 110.771 45.2989 110.649Z" fill="#00B33C"/>
<g opacity="0.08">
<path d="M38.389 36.7513C38.389 38.2394 37.1826 39.4458 35.6945 39.4458C34.2064 39.4458 33 38.2394 33 36.7513C33 35.2632 34.2064 34.0568 35.6945 34.0568C37.1826 34.0568 38.389 35.2632 38.389 36.7513Z" fill="#00B33C"/>
<path d="M167.955 58.2835C167.955 59.7716 166.748 60.978 165.26 60.978C163.772 60.978 162.566 59.7716 162.566 58.2835C162.566 56.7954 163.772 55.589 165.26 55.589C166.748 55.589 167.955 56.7954 167.955 58.2835Z" fill="#00B33C"/>
<path d="M119.519 28.1945C119.519 29.6826 118.313 30.889 116.824 30.889C115.336 30.889 114.13 29.6826 114.13 28.1945C114.13 26.7064 115.336 25.5 116.824 25.5C118.313 25.5 119.519 26.7064 119.519 28.1945Z" fill="#00B33C"/>
<path d="M45.5992 51.6165C45.5992 54.1104 43.5774 56.1322 41.0834 56.1322C38.5895 56.1322 36.5677 54.1104 36.5677 51.6165C36.5677 49.1225 38.5895 47.1007 41.0834 47.1007C43.5774 47.1007 45.5992 49.1225 45.5992 51.6165Z" fill="#00B33C"/>
</g>
<path fill-rule="evenodd" clip-rule="evenodd" d="M86.3449 87.9628C83.0219 87.9628 80.3281 90.6566 80.3281 93.9796C80.3281 97.3026 83.0219 99.9964 86.3449 99.9964C89.6679 99.9964 92.3618 97.3026 92.3618 93.9796C92.3618 90.6566 89.6679 87.9628 86.3449 87.9628V87.9628Z" fill="#00B33C"/>
<path opacity="0.72" fill-rule="evenodd" clip-rule="evenodd" d="M86.3462 88.6626C89.2827 88.6626 91.6631 91.0431 91.6631 93.9795C91.6631 96.916 89.2827 99.2964 86.3462 99.2964C83.4098 99.2964 81.0293 96.916 81.0293 93.9795C81.0319 91.0441 83.4108 88.6652 86.3462 88.6626Z" fill="#00B33C"/>
<path fill-rule="evenodd" clip-rule="evenodd" d="M83.8583 94.4192L83.5673 94.1352C83.5044 94.0778 83.4688 93.9974 83.4688 93.9134C83.4688 93.8293 83.5044 93.749 83.5673 93.6915L86.1201 91.1981C86.1789 91.1367 86.2612 91.1019 86.3474 91.1019C86.4335 91.1019 86.5158 91.1367 86.5747 91.1981L89.1275 93.6893C89.1891 93.7474 89.224 93.8275 89.224 93.9112C89.224 93.9948 89.1891 94.0749 89.1275 94.133L88.8365 94.417C88.777 94.4771 88.6949 94.5111 88.6092 94.5111C88.5235 94.5111 88.4414 94.4771 88.3819 94.417L86.8725 92.8641V96.5488C86.8731 96.6304 86.8403 96.7088 86.7814 96.7667C86.7225 96.8246 86.6424 96.8571 86.5588 96.8571H86.1383C85.9637 96.8571 85.8223 96.7191 85.8223 96.5488V92.8685L84.3129 94.4214C84.2531 94.4813 84.1708 94.5149 84.0851 94.5145C83.9994 94.514 83.9175 94.4796 83.8583 94.4192Z" fill="#00B33C"/>
<path d="M42.5514 108.999C42.5514 108.999 45.3829 99.7162 42.1079 95.9977C39.6576 93.216 36.8759 93.5486 35.6302 93.8924C34.9783 94.0666 34.4355 94.5178 34.1453 95.1269C33.7093 96.0662 33.7877 97.591 36.8622 99.3711C42.0082 102.351 42.3284 106.438 42.3284 106.438L42.5514 108.999Z" fill="#00B33C"/>
<path d="M42.6664 109.073C42.6664 109.073 39.349 102.326 38.4384 102.47C38.0062 102.541 37.8069 102.969 37.7159 103.395C37.6041 103.947 37.6672 104.521 37.8965 105.037C38.3674 106.12 39.6318 108.17 42.6664 109.073Z" fill="#00B33C"/>
<path d="M42.5676 109.073C42.5676 109.073 45.8837 102.326 46.7943 102.47C47.2279 102.541 47.4272 102.969 47.5169 103.395C47.6287 103.947 47.5655 104.521 47.3362 105.037C46.8654 106.12 45.5997 108.17 42.5676 109.073Z" fill="#00B33C"/>
<path fill-rule="evenodd" clip-rule="evenodd" d="M35.9755 95.1779C35.9927 95.123 36.0511 95.0924 36.106 95.1097L36.0749 95.2091C36.106 95.1097 36.106 95.1097 36.106 95.1097L36.1067 95.1099L36.1081 95.1103L36.1131 95.1119L36.132 95.1182C36.1484 95.1237 36.1724 95.132 36.2035 95.1432C36.2656 95.1656 36.3559 95.1997 36.4698 95.2471C36.6976 95.3418 37.02 95.4893 37.4005 95.7014C38.1614 96.1255 39.156 96.8083 40.0918 97.844C41.9667 99.919 43.5947 103.399 42.6554 109.016C42.6459 109.073 42.5922 109.111 42.5354 109.102C42.4787 109.092 42.4404 109.039 42.4499 108.982C43.3791 103.425 41.7682 100.01 39.9372 97.9837C39.0199 96.9685 38.0448 96.299 37.2991 95.8834C36.9263 95.6756 36.6112 95.5315 36.3899 95.4395C36.2792 95.3935 36.192 95.3605 36.1328 95.3391C36.1032 95.3285 36.0806 95.3207 36.0656 95.3156L36.0488 95.3101L36.0447 95.3088L36.0439 95.3085C35.989 95.2913 35.9583 95.2328 35.9755 95.1779Z" fill="#00B33C"/>
<path fill-rule="evenodd" clip-rule="evenodd" d="M41.037 96.0864C41.0692 96.1341 41.0566 96.1988 41.0089 96.2309L41.0086 96.2312L41.0067 96.2325L40.9984 96.2383C40.9909 96.2437 40.9796 96.2519 40.9652 96.263C40.9363 96.2851 40.8948 96.3182 40.846 96.3617C40.748 96.4489 40.6215 96.5764 40.5064 96.7381C40.2762 97.0612 40.0964 97.5122 40.2665 98.053C40.2837 98.1078 40.2532 98.1663 40.1983 98.1836C40.1434 98.2008 40.085 98.1703 40.0677 98.1154C39.8715 97.4915 40.0835 96.9727 40.3367 96.6172C40.4632 96.4396 40.6012 96.3006 40.7075 96.2061C40.7607 96.1587 40.8062 96.1222 40.8387 96.0974C40.855 96.085 40.8681 96.0754 40.8772 96.0689L40.888 96.0613L40.891 96.0592L40.8919 96.0586L40.8923 96.0583C40.8923 96.0583 40.8924 96.0582 40.9486 96.1416L40.8923 96.0583C40.9401 96.0261 41.0049 96.0387 41.037 96.0864Z" fill="#00B33C"/>
<path fill-rule="evenodd" clip-rule="evenodd" d="M36.9862 96.9078L36.9872 96.9068L36.9921 96.902C36.9967 96.8976 37.0038 96.8908 37.0134 96.8822C37.0325 96.8651 37.0612 96.8404 37.0985 96.8118C37.1732 96.7544 37.281 96.682 37.4135 96.6213C37.6779 96.5003 38.0345 96.4282 38.4266 96.6092C38.4789 96.6333 38.5408 96.6105 38.5649 96.5582C38.589 96.506 38.5662 96.4441 38.5139 96.42C38.0503 96.2061 37.6277 96.2941 37.3268 96.4319C37.1767 96.5006 37.0554 96.5822 36.9716 96.6466C36.9296 96.6788 36.8967 96.707 36.8741 96.7273C36.8628 96.7375 36.854 96.7458 36.8478 96.7517L36.8407 96.7587L36.8386 96.7607L36.838 96.7614L36.8376 96.7617C36.8376 96.7617 36.8376 96.7617 36.9119 96.8348L36.8376 96.7617C36.7973 96.8027 36.7978 96.8687 36.8389 96.9091C36.8799 96.9494 36.9459 96.9488 36.9862 96.9078Z" fill="#00B33C"/>
<path fill-rule="evenodd" clip-rule="evenodd" d="M40.2588 100.523L40.2592 100.523L40.2614 100.522L40.2708 100.517C40.2793 100.513 40.2919 100.507 40.3083 100.5C40.3412 100.485 40.3888 100.464 40.4469 100.442C40.5639 100.397 40.7211 100.346 40.8861 100.319C41.0524 100.291 41.2179 100.289 41.3562 100.333C41.4897 100.376 41.6016 100.463 41.6688 100.627C41.6906 100.681 41.7514 100.706 41.8046 100.685C41.8579 100.663 41.8834 100.602 41.8617 100.549C41.7695 100.323 41.6075 100.195 41.4198 100.135C41.2369 100.076 41.034 100.083 40.8518 100.113C40.6684 100.144 40.497 100.2 40.3725 100.247C40.31 100.271 40.2586 100.294 40.2227 100.31C40.2047 100.318 40.1906 100.324 40.1808 100.329L40.1694 100.335L40.1663 100.336L40.1654 100.337L40.165 100.337C40.165 100.337 40.1649 100.337 40.2118 100.43L40.165 100.337C40.1136 100.363 40.0929 100.425 40.1188 100.477C40.1448 100.528 40.2074 100.549 40.2588 100.523Z" fill="#00B33C"/>
<path fill-rule="evenodd" clip-rule="evenodd" d="M38.4039 103.668C38.4512 103.635 38.5161 103.647 38.5487 103.694L38.463 103.753L38.3772 103.813C38.3446 103.765 38.3565 103.7 38.4039 103.668ZM38.463 103.753C38.3772 103.813 38.3772 103.813 38.3772 103.813L38.4166 103.87C38.4423 103.907 38.4801 103.961 38.5284 104.03C38.625 104.169 38.7637 104.367 38.9323 104.606C39.2693 105.083 39.7259 105.721 40.2036 106.367C40.6811 107.012 41.1807 107.666 41.6035 108.173C41.8148 108.426 42.0082 108.644 42.171 108.806C42.2524 108.888 42.3274 108.956 42.3943 109.009C42.4592 109.06 42.5238 109.102 42.5836 109.122C42.6382 109.14 42.6971 109.11 42.7151 109.055C42.7331 109.001 42.7035 108.942 42.6488 108.924C42.6245 108.916 42.5831 108.892 42.5231 108.845C42.4651 108.8 42.3964 108.737 42.3182 108.659C42.1619 108.503 41.9731 108.29 41.7635 108.039C41.3445 107.537 40.8478 106.887 40.3711 106.243C39.8946 105.599 39.439 104.962 39.1024 104.486C38.9341 104.247 38.7957 104.05 38.6993 103.911C38.6511 103.842 38.6135 103.788 38.5879 103.751L38.5487 103.694C38.5487 103.694 38.5487 103.694 38.463 103.753Z" fill="#00B33C"/>
<path fill-rule="evenodd" clip-rule="evenodd" d="M38.0386 104.542C38.0386 104.484 38.0852 104.438 38.1428 104.438H38.955C39.0125 104.438 39.0591 104.484 39.0591 104.542C39.0591 104.6 39.0125 104.646 38.955 104.646H38.1428C38.0852 104.646 38.0386 104.6 38.0386 104.542Z" fill="#00B33C"/>
<path fill-rule="evenodd" clip-rule="evenodd" d="M39.0116 106.384C39.0141 106.326 39.0627 106.282 39.1201 106.284L40.3945 106.339C40.452 106.341 40.4966 106.39 40.4941 106.447C40.4916 106.505 40.443 106.549 40.3855 106.547L39.1112 106.492C39.0537 106.49 39.0091 106.441 39.0116 106.384Z" fill="#00B33C"/>
<path fill-rule="evenodd" clip-rule="evenodd" d="M39.9128 104.809C39.9691 104.82 40.0052 104.876 39.9935 104.932L39.8552 105.596C39.8435 105.652 39.7884 105.688 39.732 105.677C39.6757 105.665 39.6396 105.61 39.6513 105.553L39.7896 104.889C39.8013 104.833 39.8565 104.797 39.9128 104.809Z" fill="#00B33C"/>
<path fill-rule="evenodd" clip-rule="evenodd" d="M41.25 106.826C41.3074 106.828 41.3521 106.877 41.3497 106.934L41.3248 107.537C41.3224 107.595 41.2739 107.639 41.2164 107.637C41.159 107.635 41.1143 107.586 41.1167 107.529L41.1416 106.926C41.144 106.868 41.1925 106.824 41.25 106.826Z" fill="#00B33C"/>
<path fill-rule="evenodd" clip-rule="evenodd" d="M46.685 103.694C46.7177 103.647 46.7826 103.635 46.8299 103.668C46.8772 103.7 46.8891 103.765 46.8564 103.813L46.7707 103.753L46.685 103.694ZM46.685 103.694C46.685 103.694 46.685 103.694 46.7707 103.753C46.8564 103.813 46.8564 103.813 46.8564 103.813L46.8169 103.87C46.7912 103.907 46.7533 103.961 46.7049 104.03C46.6081 104.169 46.4692 104.367 46.3003 104.606C45.9626 105.083 45.5053 105.721 45.0271 106.367C44.549 107.012 44.0492 107.666 43.6265 108.173C43.4153 108.426 43.2221 108.644 43.0598 108.806C42.9786 108.888 42.9038 108.956 42.8373 109.009C42.7728 109.06 42.7085 109.102 42.6491 109.122C42.5945 109.14 42.5355 109.11 42.5174 109.056C42.4992 109.001 42.5288 108.942 42.5833 108.924C42.6072 108.916 42.6483 108.893 42.7081 108.845C42.7659 108.8 42.8344 108.737 42.9124 108.659C43.0684 108.503 43.257 108.29 43.4665 108.039C43.8853 107.537 44.3824 106.887 44.8597 106.243C45.3367 105.599 45.7931 104.962 46.1303 104.485C46.2988 104.247 46.4375 104.049 46.5341 103.911C46.5824 103.842 46.6201 103.788 46.6458 103.751L46.685 103.694Z" fill="#00B33C"/>
<path fill-rule="evenodd" clip-rule="evenodd" d="M46.1742 104.542C46.1742 104.484 46.2208 104.438 46.2783 104.438H47.0905C47.1481 104.438 47.1947 104.484 47.1947 104.542C47.1947 104.6 47.1481 104.646 47.0905 104.646H46.2783C46.2208 104.646 46.1742 104.6 46.1742 104.542Z" fill="#00B33C"/>
<path fill-rule="evenodd" clip-rule="evenodd" d="M46.2216 106.384C46.2241 106.441 46.1795 106.49 46.122 106.492L44.8477 106.547C44.7902 106.549 44.7416 106.505 44.7391 106.447C44.7366 106.39 44.7812 106.341 44.8387 106.339L46.1131 106.284C46.1706 106.282 46.2192 106.326 46.2216 106.384Z" fill="#00B33C"/>
<path fill-rule="evenodd" clip-rule="evenodd" d="M45.3204 104.809C45.3767 104.797 45.4319 104.833 45.4436 104.889L45.5819 105.553C45.5936 105.61 45.5575 105.665 45.5012 105.677C45.4448 105.688 45.3897 105.652 45.3779 105.596L45.2397 104.932C45.2279 104.876 45.2641 104.82 45.3204 104.809Z" fill="#00B33C"/>
<path fill-rule="evenodd" clip-rule="evenodd" d="M43.9834 106.826C44.0408 106.824 44.0894 106.868 44.0917 106.926L44.1167 107.529C44.119 107.586 44.0744 107.635 44.0169 107.637C43.9594 107.639 43.9109 107.595 43.9085 107.537L43.8836 106.934C43.8812 106.877 43.9259 106.828 43.9834 106.826Z" fill="#00B33C"/>
<defs>
<linearGradient id="paint0_linear_3_5698" x1="100.5" y1="150.5" x2="178.383" y2="11.0074" gradientUnits="userSpaceOnUse">
<stop/>
<stop offset="1" stop-opacity="0.01"/>
</linearGradient>
<linearGradient id="paint1_linear_3_5698" x1="74.9286" y1="57.6831" x2="54.7464" y2="117.277" gradientUnits="userSpaceOnUse">
<stop stop-color="#00A66F"/>
<stop offset="1" stop-color="#007867"/>
</linearGradient>
</defs>
</svg>
