<svg width="24" height="25" viewBox="0 0 24 25" fill="none" xmlns="http://www.w3.org/2000/svg">
<path d="M10.8784 0.5C13.6588 0.5 15.9281 2.74872 16.0555 5.57149L16.0612 5.822V6.9416C16.0612 7.43866 15.6688 7.8416 15.1847 7.8416C14.741 7.8416 14.3743 7.50302 14.3163 7.06372L14.3083 6.9416V5.822C14.3083 3.94652 12.8802 2.41312 11.08 2.30598L10.8784 2.3H5.18155C3.35614 2.3 1.86304 3.76656 1.75871 5.61509L1.75289 5.822V19.178C1.75289 21.0533 3.1808 22.5869 4.98014 22.694L5.18155 22.7H10.8901C12.71 22.7 14.1985 21.2389 14.3025 19.3973L14.3083 19.1912V18.0596C14.3083 17.5625 14.7007 17.1596 15.1847 17.1596C15.6284 17.1596 15.9951 17.4982 16.0532 17.9375L16.0612 18.0596V19.1912C16.0612 22.0367 13.8796 24.3597 11.1406 24.4939L10.8901 24.5H5.18155C2.40211 24.5 0.133034 22.2511 0.00564101 19.4285L0 19.178V5.822C0 2.96713 2.18966 0.636635 4.93767 0.505794L5.18155 0.5H10.8784ZM20.2214 8.27703L20.3199 8.36395L23.7416 11.8619C23.7724 11.8933 23.7994 11.9253 23.8242 11.9591L23.7416 11.8619C23.7773 11.8984 23.8093 11.9373 23.8376 11.9781C23.8575 12.0066 23.876 12.0367 23.8926 12.0679C23.8957 12.074 23.8988 12.08 23.9018 12.086C23.9166 12.1147 23.9297 12.1446 23.9412 12.1752C23.946 12.1886 23.9507 12.2022 23.9551 12.2159C23.9636 12.2411 23.9708 12.2671 23.9769 12.2935C23.9797 12.3076 23.9825 12.3216 23.985 12.3357C23.9899 12.3602 23.9934 12.3855 23.9958 12.4112C23.9971 12.429 23.9983 12.4466 23.999 12.4643C23.9998 12.4761 24 12.488 24 12.4999L23.999 12.5339C23.9983 12.5523 23.9971 12.5708 23.9953 12.5892L24 12.4999C24 12.5561 23.995 12.6111 23.9854 12.6645C23.9825 12.6778 23.9797 12.6919 23.9765 12.7059C23.9706 12.7337 23.9631 12.7606 23.9544 12.787C23.95 12.7993 23.9456 12.8117 23.941 12.8241C23.9302 12.8539 23.9175 12.8828 23.9035 12.9109C23.9 12.9172 23.8963 12.9243 23.8926 12.9314C23.8523 13.0073 23.8019 13.0761 23.7433 13.1363L23.7417 13.1375L20.32 16.6367C19.9771 16.9874 19.4221 16.9862 19.0805 16.6341C18.77 16.3139 18.7427 15.8138 18.998 15.462L19.0831 15.3613L20.9985 13.3988L9.05251 13.3999C8.56847 13.3999 8.17607 12.9969 8.17607 12.4999C8.17607 12.0442 8.50579 11.6677 8.93359 11.6081L9.05251 11.5999L21.0008 11.5988L19.0832 9.63957C18.7714 9.32076 18.742 8.82083 18.9958 8.46792L19.0804 8.36678C19.3909 8.04655 19.8778 8.01639 20.2214 8.27703Z" fill="#A0616A"/>
</svg>
