<svg width="26" height="34" viewBox="0 0 26 34" fill="none" xmlns="http://www.w3.org/2000/svg">
<path d="M22.5009 18.76L25.3409 18.72V20.36C25.0209 20.3067 24.6476 20.28 24.2209 20.28C23.7943 20.28 23.3143 20.3067 22.7809 20.36C22.7809 22.4133 21.7943 24.4933 19.8209 26.6C17.8476 28.7067 15.4609 30.4133 12.6609 31.72C9.8876 33.0533 7.30094 33.72 4.90094 33.72C3.6476 33.72 2.62094 33.4 1.82094 32.76C1.0476 32.12 0.660937 31.28 0.660937 30.24C0.660937 28.6933 1.6876 27.08 3.74094 25.4C5.79427 23.72 8.19427 22.3333 10.9409 21.24C13.6876 20.1467 16.1676 19.5067 18.3809 19.32C18.1143 18.92 17.7009 18.5733 17.1409 18.28C16.5809 17.9867 15.4343 17.5333 13.7009 16.92C11.9676 16.28 10.7409 15.5867 10.0209 14.84C9.30094 14.0667 8.94094 12.9867 8.94094 11.6C8.94094 10.2133 9.6876 8.62667 11.1809 6.84C12.6743 5.05333 14.4343 3.56 16.4609 2.36C18.5143 1.13333 20.3143 0.519999 21.8609 0.519999C22.5543 0.519999 23.1276 0.773332 23.5809 1.28C24.0343 1.76 24.2609 2.36 24.2609 3.08C24.2609 4.25333 23.5543 5.73333 22.1409 7.52C20.7276 9.28 19.1543 10.6267 17.4209 11.56L16.4609 10.2C17.5009 9.66667 18.4076 8.84 19.1809 7.72C19.9809 6.57333 20.3809 5.58667 20.3809 4.76C20.3809 3.93333 19.9409 3.52 19.0609 3.52C17.8076 3.52 16.3676 4.30667 14.7409 5.88C13.1409 7.42667 12.3409 8.88 12.3409 10.24C12.3409 11.1733 12.5809 11.9067 13.0609 12.44C13.5409 12.9733 14.7543 13.64 16.7009 14.44C18.6476 15.2133 20.0343 15.9067 20.8609 16.52C21.6876 17.1067 22.2343 17.8533 22.5009 18.76ZM4.66094 29.2C4.66094 30.48 5.70094 31.12 7.78094 31.12C8.9276 31.12 10.4076 30.6933 12.2209 29.84C14.0609 29.0133 15.6743 27.84 17.0609 26.32C18.4743 24.8267 19.1809 23.2933 19.1809 21.72C19.1809 21.5333 19.1409 21.2533 19.0609 20.88C15.4076 21.2267 12.0876 22.2533 9.10094 23.96C6.14094 25.6667 4.66094 27.4133 4.66094 29.2Z" fill="#5F3B40"/>
</svg>
