<svg width="20" height="20" viewBox="0 0 20 20" fill="none" xmlns="http://www.w3.org/2000/svg">
<path d="M18.2503 9.99998C18.2503 9.90832 18.2003 9.81665 18.1753 9.72498C18.1368 9.56327 18.0866 9.40453 18.0253 9.24998C17.9837 9.14998 17.9253 9.04998 17.8753 8.94165C17.8253 8.83332 17.7503 8.69165 17.6753 8.57498C17.6003 8.45832 17.5003 8.39998 17.5003 8.33332C17.5003 8.26665 17.3337 8.12498 17.242 8.02498C17.1503 7.92498 17.067 7.85832 16.9753 7.77498L16.667 7.49998L16.367 7.29998C16.2492 7.22791 16.1267 7.16388 16.0003 7.10832L15.6753 6.95832C15.5392 6.90791 15.4 6.86616 15.2587 6.83332C15.1467 6.80037 15.0325 6.77531 14.917 6.75832L14.7253 6.66665C14.3853 5.68419 13.7475 4.83217 12.9006 4.22912C12.0537 3.62607 11.04 3.302 10.0003 3.302C8.96069 3.302 7.94691 3.62607 7.10005 4.22912C6.25318 4.83217 5.61536 5.68419 5.27533 6.66665L5.12533 6.70832C5.00983 6.72531 4.89566 6.75037 4.78366 6.78332C4.64227 6.81616 4.50311 6.85791 4.36699 6.90832L4.04199 7.05832C3.91559 7.11388 3.79309 7.17791 3.67533 7.24998L3.37533 7.49998L3.06699 7.75832C2.97533 7.84165 2.88366 7.91665 2.80033 8.00832C2.71699 8.09998 2.62533 8.21665 2.54199 8.31665C2.45866 8.41665 2.39199 8.50832 2.32533 8.61665C2.25866 8.72498 2.19199 8.85832 2.12533 8.98332C2.05866 9.10832 2.01699 9.19165 1.97533 9.29165C1.91403 9.44619 1.8639 9.60493 1.82533 9.76665C1.82533 9.85832 1.76699 9.94998 1.75033 10.0416C1.69846 10.3024 1.67056 10.5674 1.66699 10.8333C1.6709 11.0877 1.69599 11.3414 1.74199 11.5917C1.74199 11.675 1.78366 11.75 1.80033 11.8333C1.84151 11.997 1.89159 12.1584 1.95033 12.3166L2.05033 12.5583C2.12368 12.719 2.20718 12.8749 2.30033 13.025L2.41699 13.2083C2.42898 13.2317 2.44292 13.254 2.45866 13.275L2.50033 13.3333C2.88844 13.8508 3.3917 14.2708 3.97027 14.5601C4.54883 14.8494 5.1868 15 5.83366 15H8.33366V13.8583C8.08046 14.0052 7.79304 14.0828 7.50033 14.0833C7.04887 14.0791 6.61744 13.8963 6.30033 13.575C6.14807 13.4175 6.02836 13.2315 5.94804 13.0277C5.86772 12.8239 5.82837 12.6062 5.83224 12.3872C5.83611 12.1681 5.88312 11.952 5.97059 11.7512C6.05806 11.5503 6.18427 11.3687 6.34199 11.2167L8.84199 8.79998C9.15303 8.50019 9.56833 8.33287 10.0003 8.33332C10.4416 8.33518 10.8642 8.51199 11.1753 8.82498L13.6753 11.325C13.9857 11.6373 14.16 12.0597 14.16 12.5C14.16 12.9403 13.9857 13.3627 13.6753 13.675C13.3642 13.988 12.9416 14.1648 12.5003 14.1667C12.2072 14.1694 11.9189 14.0916 11.667 13.9417V15H14.167C14.8138 15 15.4518 14.8494 16.0304 14.5601C16.6089 14.2708 17.1122 13.8508 17.5003 13.3333L17.542 13.2916C17.5577 13.2706 17.5717 13.2483 17.5837 13.225L17.7003 13.0416C17.7935 12.8916 17.877 12.7357 17.9503 12.575L18.0503 12.3333C18.1091 12.175 18.1591 12.0137 18.2003 11.85C18.2003 11.7667 18.242 11.6917 18.2587 11.6083C18.3056 11.3526 18.3307 11.0933 18.3337 10.8333C18.3327 10.5535 18.3048 10.2744 18.2503 9.99998Z" fill="black"/>
<path d="M10.592 9.40832C10.4362 9.25563 10.2268 9.1701 10.0087 9.1701C9.79053 9.1701 9.5811 9.25563 9.42533 9.40832L6.92533 11.825C6.8369 11.8979 6.76448 11.9884 6.7126 12.0906C6.66071 12.1928 6.63048 12.3047 6.62379 12.4191C6.6171 12.5336 6.6341 12.6482 6.67372 12.7557C6.71334 12.8633 6.77473 12.9616 6.85405 13.0443C6.93337 13.1271 7.02892 13.1926 7.13471 13.2368C7.24051 13.2809 7.35428 13.3028 7.46891 13.301C7.58353 13.2992 7.69655 13.2737 7.8009 13.2262C7.90524 13.1787 7.99867 13.1102 8.07533 13.025L9.16699 11.9666V16.6667C9.16699 16.8877 9.25479 17.0996 9.41107 17.2559C9.56735 17.4122 9.77931 17.5 10.0003 17.5C10.2213 17.5 10.4333 17.4122 10.5896 17.2559C10.7459 17.0996 10.8337 16.8877 10.8337 16.6667V12.0083L11.9087 13.0917C11.9861 13.1698 12.0783 13.2318 12.1798 13.2741C12.2814 13.3164 12.3903 13.3381 12.5003 13.3381C12.6103 13.3381 12.7193 13.3164 12.8208 13.2741C12.9224 13.2318 13.0145 13.1698 13.092 13.0917C13.1701 13.0142 13.2321 12.922 13.2744 12.8205C13.3167 12.7189 13.3385 12.61 13.3385 12.5C13.3385 12.39 13.3167 12.2811 13.2744 12.1795C13.2321 12.078 13.1701 11.9858 13.092 11.9083L10.592 9.40832Z" fill="black"/>
</svg>
