<svg width="22" height="37" viewBox="0 0 22 37" fill="none" xmlns="http://www.w3.org/2000/svg">
<path d="M-6.22473 0.657776L-7.02362 1.88978M-6.22473 9.07644L-7.02362 10.3084M-6.22473 17.4951L-7.02362 18.7271M-6.22473 25.9138L-7.02362 27.1458M-6.22473 34.3324L-7.02362 35.5644M-0.765616 0.657776L-1.56451 1.88978M-0.765616 9.07644L-1.56451 10.3084M-0.765616 17.4951L-1.56451 18.7271M-0.765616 25.9138L-1.56451 27.1458M-0.765616 34.3324L-1.56451 35.5644M4.69349 0.657776L3.8946 1.88978M4.69349 9.07644L3.8946 10.3084M4.69349 17.4951L3.8946 18.7271M4.69349 25.9138L3.8946 27.1458M4.69349 34.3324L3.8946 35.5644M10.1526 0.657776L9.35371 1.88978M10.1526 9.07644L9.35371 10.3084M10.1526 17.4951L9.35371 18.7271M10.1526 25.9138L9.35371 27.1458M10.1526 34.3324L9.35371 35.5644M15.6117 0.657776L14.8128 1.88978M15.6117 9.07644L14.8128 10.3084M15.6117 17.4951L14.8128 18.7271M15.6117 25.9138L14.8128 27.1458M15.6117 34.3324L14.8128 35.5644M21.0708 0.657776L20.2719 1.88978M21.0708 9.07644L20.2719 10.3084M21.0708 17.4951L20.2719 18.7271M21.0708 25.9138L20.2719 27.1458M21.0708 34.3324L20.2719 35.5644" stroke="#34251F" stroke-width="2"/>
</svg>
