<svg xmlns="http://www.w3.org/2000/svg" fill="none" viewBox="65.66 9.52 220.34 33.2">
<path d="M87.5009 27.76L90.3409 27.72V29.36C90.0209 29.3067 89.6476 29.28 89.2209 29.28C88.7943 29.28 88.3143 29.3067 87.7809 29.36C87.7809 31.4133 86.7943 33.4933 84.8209 35.6C82.8476 37.7067 80.4609 39.4133 77.6609 40.72C74.8876 42.0533 72.3009 42.72 69.9009 42.72C68.6476 42.72 67.6209 42.4 66.8209 41.76C66.0476 41.12 65.6609 40.28 65.6609 39.24C65.6609 37.6933 66.6876 36.08 68.7409 34.4C70.7943 32.72 73.1943 31.3333 75.9409 30.24C78.6876 29.1467 81.1676 28.5067 83.3809 28.32C83.1143 27.92 82.7009 27.5733 82.1409 27.28C81.5809 26.9867 80.4343 26.5333 78.7009 25.92C76.9676 25.28 75.7409 24.5867 75.0209 23.84C74.3009 23.0667 73.9409 21.9867 73.9409 20.6C73.9409 19.2133 74.6876 17.6267 76.1809 15.84C77.6743 14.0533 79.4343 12.56 81.4609 11.36C83.5143 10.1333 85.3143 9.52 86.8609 9.52C87.5543 9.52 88.1276 9.77333 88.5809 10.28C89.0343 10.76 89.2609 11.36 89.2609 12.08C89.2609 13.2533 88.5543 14.7333 87.1409 16.52C85.7276 18.28 84.1543 19.6267 82.4209 20.56L81.4609 19.2C82.5009 18.6667 83.4076 17.84 84.1809 16.72C84.9809 15.5733 85.3809 14.5867 85.3809 13.76C85.3809 12.9333 84.9409 12.52 84.0609 12.52C82.8076 12.52 81.3676 13.3067 79.7409 14.88C78.1409 16.4267 77.3409 17.88 77.3409 19.24C77.3409 20.1733 77.5809 20.9067 78.0609 21.44C78.5409 21.9733 79.7543 22.64 81.7009 23.44C83.6476 24.2133 85.0343 24.9067 85.8609 25.52C86.6876 26.1067 87.2343 26.8533 87.5009 27.76ZM69.6609 38.2C69.6609 39.48 70.7009 40.12 72.7809 40.12C73.9276 40.12 75.4076 39.6933 77.2209 38.84C79.0609 38.0133 80.6743 36.84 82.0609 35.32C83.4743 33.8267 84.1809 32.2933 84.1809 30.72C84.1809 30.5333 84.1409 30.2533 84.0609 29.88C80.4076 30.2267 77.0876 31.2533 74.1009 32.96C71.1409 34.6667 69.6609 36.4133 69.6609 38.2Z" fill="black"/>
<path d="M107.631 35.24C106.711 35.24 105.858 35.0667 105.071 34.72C104.285 34.36 103.605 33.8867 103.031 33.3L104.031 32.14C104.498 32.6333 105.045 33.0333 105.671 33.34C106.311 33.6333 106.971 33.78 107.651 33.78C108.518 33.78 109.191 33.5867 109.671 33.2C110.151 32.8 110.391 32.28 110.391 31.64C110.391 31.1867 110.291 30.8267 110.091 30.56C109.905 30.2933 109.645 30.0667 109.311 29.88C108.991 29.6933 108.625 29.5067 108.211 29.32L106.331 28.5C105.918 28.3267 105.505 28.1 105.091 27.82C104.691 27.54 104.351 27.18 104.071 26.74C103.805 26.3 103.671 25.76 103.671 25.12C103.671 24.4533 103.845 23.86 104.191 23.34C104.551 22.8067 105.045 22.3933 105.671 22.1C106.298 21.7933 107.005 21.64 107.791 21.64C108.578 21.64 109.305 21.7933 109.971 22.1C110.638 22.3933 111.205 22.78 111.671 23.26L110.771 24.34C110.371 23.9533 109.925 23.6533 109.431 23.44C108.951 23.2133 108.405 23.1 107.791 23.1C107.058 23.1 106.465 23.2733 106.011 23.62C105.571 23.9667 105.351 24.4333 105.351 25.02C105.351 25.4333 105.458 25.78 105.671 26.06C105.898 26.3267 106.178 26.5467 106.511 26.72C106.845 26.8933 107.185 27.0533 107.531 27.2L109.391 28C109.898 28.2133 110.351 28.4733 110.751 28.78C111.165 29.0733 111.491 29.44 111.731 29.88C111.971 30.3067 112.091 30.8467 112.091 31.5C112.091 32.1933 111.911 32.8267 111.551 33.4C111.191 33.96 110.678 34.4067 110.011 34.74C109.345 35.0733 108.551 35.24 107.631 35.24ZM120.115 35L117.335 21.88H119.055L120.435 29.02C120.555 29.7267 120.682 30.4333 120.815 31.14C120.948 31.8467 121.075 32.5533 121.195 33.26H121.275C121.422 32.5533 121.575 31.8467 121.735 31.14C121.895 30.42 122.048 29.7133 122.195 29.02L124.015 21.88H125.535L127.355 29.02C127.515 29.7133 127.675 30.42 127.835 31.14C127.995 31.8467 128.155 32.5533 128.315 33.26H128.395C128.515 32.5533 128.635 31.8467 128.755 31.14C128.875 30.42 129.002 29.7133 129.135 29.02L130.515 21.88H132.115L129.395 35H127.395L125.415 27.1C125.295 26.5933 125.182 26.1 125.075 25.62C124.982 25.1267 124.882 24.6267 124.775 24.12H124.695C124.602 24.6267 124.495 25.1267 124.375 25.62C124.255 26.1 124.142 26.5933 124.035 27.1L122.095 35H120.115ZM140.658 27.66L140.038 29.66H143.978L143.358 27.66C143.118 26.9267 142.891 26.2 142.678 25.48C142.464 24.7467 142.251 24 142.038 23.24H141.958C141.758 24 141.551 24.7467 141.338 25.48C141.124 26.2 140.898 26.9267 140.658 27.66ZM136.658 35L141.098 21.88H142.978L147.418 35H145.638L144.398 31H139.618L138.358 35H136.658ZM156.917 35.24C155.997 35.24 155.143 35.0667 154.357 34.72C153.57 34.36 152.89 33.8867 152.317 33.3L153.317 32.14C153.783 32.6333 154.33 33.0333 154.957 33.34C155.597 33.6333 156.257 33.78 156.937 33.78C157.803 33.78 158.477 33.5867 158.957 33.2C159.437 32.8 159.677 32.28 159.677 31.64C159.677 31.1867 159.577 30.8267 159.377 30.56C159.19 30.2933 158.93 30.0667 158.597 29.88C158.277 29.6933 157.91 29.5067 157.497 29.32L155.617 28.5C155.203 28.3267 154.79 28.1 154.377 27.82C153.977 27.54 153.637 27.18 153.357 26.74C153.09 26.3 152.957 25.76 152.957 25.12C152.957 24.4533 153.13 23.86 153.477 23.34C153.837 22.8067 154.33 22.3933 154.957 22.1C155.583 21.7933 156.29 21.64 157.077 21.64C157.863 21.64 158.59 21.7933 159.257 22.1C159.923 22.3933 160.49 22.78 160.957 23.26L160.057 24.34C159.657 23.9533 159.21 23.6533 158.717 23.44C158.237 23.2133 157.69 23.1 157.077 23.1C156.343 23.1 155.75 23.2733 155.297 23.62C154.857 23.9667 154.637 24.4333 154.637 25.02C154.637 25.4333 154.743 25.78 154.957 26.06C155.183 26.3267 155.463 26.5467 155.797 26.72C156.13 26.8933 156.47 27.0533 156.817 27.2L158.677 28C159.183 28.2133 159.637 28.4733 160.037 28.78C160.45 29.0733 160.777 29.44 161.017 29.88C161.257 30.3067 161.377 30.8467 161.377 31.5C161.377 32.1933 161.197 32.8267 160.837 33.4C160.477 33.96 159.963 34.4067 159.297 34.74C158.63 35.0733 157.837 35.24 156.917 35.24ZM171.327 35.24C170.407 35.24 169.553 35.0667 168.767 34.72C167.98 34.36 167.3 33.8867 166.727 33.3L167.727 32.14C168.193 32.6333 168.74 33.0333 169.367 33.34C170.007 33.6333 170.667 33.78 171.347 33.78C172.213 33.78 172.887 33.5867 173.367 33.2C173.847 32.8 174.087 32.28 174.087 31.64C174.087 31.1867 173.987 30.8267 173.787 30.56C173.6 30.2933 173.34 30.0667 173.007 29.88C172.687 29.6933 172.32 29.5067 171.907 29.32L170.027 28.5C169.613 28.3267 169.2 28.1 168.787 27.82C168.387 27.54 168.047 27.18 167.767 26.74C167.5 26.3 167.367 25.76 167.367 25.12C167.367 24.4533 167.54 23.86 167.887 23.34C168.247 22.8067 168.74 22.3933 169.367 22.1C169.993 21.7933 170.7 21.64 171.487 21.64C172.273 21.64 173 21.7933 173.667 22.1C174.333 22.3933 174.9 22.78 175.367 23.26L174.467 24.34C174.067 23.9533 173.62 23.6533 173.127 23.44C172.647 23.2133 172.1 23.1 171.487 23.1C170.753 23.1 170.16 23.2733 169.707 23.62C169.267 23.9667 169.047 24.4333 169.047 25.02C169.047 25.4333 169.153 25.78 169.367 26.06C169.593 26.3267 169.873 26.5467 170.207 26.72C170.54 26.8933 170.88 27.0533 171.227 27.2L173.087 28C173.593 28.2133 174.047 28.4733 174.447 28.78C174.86 29.0733 175.187 29.44 175.427 29.88C175.667 30.3067 175.787 30.8467 175.787 31.5C175.787 32.1933 175.607 32.8267 175.247 33.4C174.887 33.96 174.373 34.4067 173.707 34.74C173.04 35.0733 172.247 35.24 171.327 35.24ZM190.374 35V21.88H197.934V23.28H192.034V27.72H197.034V29.12H192.034V35H190.374ZM205.775 27.66L205.155 29.66H209.095L208.475 27.66C208.235 26.9267 208.008 26.2 207.795 25.48C207.582 24.7467 207.368 24 207.155 23.24H207.075C206.875 24 206.668 24.7467 206.455 25.48C206.242 26.2 206.015 26.9267 205.775 27.66ZM201.775 35L206.215 21.88H208.095L212.535 35H210.755L209.515 31H204.735L203.475 35H201.775ZM222.034 35.24C221.114 35.24 220.26 35.0667 219.474 34.72C218.687 34.36 218.007 33.8867 217.434 33.3L218.434 32.14C218.9 32.6333 219.447 33.0333 220.074 33.34C220.714 33.6333 221.374 33.78 222.054 33.78C222.92 33.78 223.594 33.5867 224.074 33.2C224.554 32.8 224.794 32.28 224.794 31.64C224.794 31.1867 224.694 30.8267 224.494 30.56C224.307 30.2933 224.047 30.0667 223.714 29.88C223.394 29.6933 223.027 29.5067 222.614 29.32L220.734 28.5C220.32 28.3267 219.907 28.1 219.494 27.82C219.094 27.54 218.754 27.18 218.474 26.74C218.207 26.3 218.074 25.76 218.074 25.12C218.074 24.4533 218.247 23.86 218.594 23.34C218.954 22.8067 219.447 22.3933 220.074 22.1C220.7 21.7933 221.407 21.64 222.194 21.64C222.98 21.64 223.707 21.7933 224.374 22.1C225.04 22.3933 225.607 22.78 226.074 23.26L225.174 24.34C224.774 23.9533 224.327 23.6533 223.834 23.44C223.354 23.2133 222.807 23.1 222.194 23.1C221.46 23.1 220.867 23.2733 220.414 23.62C219.974 23.9667 219.754 24.4333 219.754 25.02C219.754 25.4333 219.86 25.78 220.074 26.06C220.3 26.3267 220.58 26.5467 220.914 26.72C221.247 26.8933 221.587 27.0533 221.934 27.2L223.794 28C224.3 28.2133 224.754 28.4733 225.154 28.78C225.567 29.0733 225.894 29.44 226.134 29.88C226.374 30.3067 226.494 30.8467 226.494 31.5C226.494 32.1933 226.314 32.8267 225.954 33.4C225.594 33.96 225.08 34.4067 224.414 34.74C223.747 35.0733 222.954 35.24 222.034 35.24ZM233.077 35V21.88H234.737V27.38H240.837V21.88H242.517V35H240.837V28.82H234.737V35H233.077ZM250.124 35V21.88H251.784V35H250.124ZM264.218 35.24C263.125 35.24 262.151 34.96 261.298 34.4C260.458 33.84 259.798 33.0467 259.318 32.02C258.851 30.9933 258.618 29.78 258.618 28.38C258.618 26.98 258.851 25.78 259.318 24.78C259.798 23.7667 260.458 22.9933 261.298 22.46C262.151 21.9133 263.125 21.64 264.218 21.64C265.325 21.64 266.298 21.9133 267.138 22.46C267.978 22.9933 268.638 23.7667 269.118 24.78C269.598 25.78 269.838 26.98 269.838 28.38C269.838 29.78 269.598 30.9933 269.118 32.02C268.638 33.0467 267.978 33.84 267.138 34.4C266.298 34.96 265.325 35.24 264.218 35.24ZM264.218 33.78C265.005 33.78 265.685 33.56 266.258 33.12C266.845 32.6667 267.298 32.04 267.618 31.24C267.938 30.4267 268.098 29.4733 268.098 28.38C268.098 26.7533 267.745 25.4667 267.038 24.52C266.331 23.5733 265.391 23.1 264.218 23.1C263.045 23.1 262.105 23.5733 261.398 24.52C260.691 25.4667 260.338 26.7533 260.338 28.38C260.338 29.4733 260.498 30.4267 260.818 31.24C261.138 32.04 261.591 32.6667 262.178 33.12C262.765 33.56 263.445 33.78 264.218 33.78ZM276.659 35V21.88H278.379L283.119 30.12L284.539 32.84H284.619C284.579 32.1733 284.533 31.4867 284.479 30.78C284.439 30.06 284.419 29.3533 284.419 28.66V21.88H285.999V35H284.279L279.519 26.74L278.099 24.04H278.019C278.073 24.6933 278.119 25.3667 278.159 26.06C278.213 26.7533 278.239 27.4467 278.239 28.14V35H276.659Z" fill="black"/>
</svg>