<svg width="28" height="28" viewBox="0 0 28 28" fill="none" xmlns="http://www.w3.org/2000/svg">
<path d="M9.33329 2.33301L8.97974 1.97945L9.33329 1.6259L9.68685 1.97945L9.33329 2.33301ZM9.83329 19.833C9.83329 20.1091 9.60944 20.333 9.33329 20.333C9.05715 20.333 8.83329 20.1091 8.83329 19.833L9.83329 19.833ZM4.31307 6.64612L8.97974 1.97945L9.68685 2.68656L5.02018 7.35323L4.31307 6.64612ZM9.68685 1.97945L14.3535 6.64612L13.6464 7.35323L8.97974 2.68656L9.68685 1.97945ZM9.83329 2.33301L9.83329 19.833L8.83329 19.833L8.83329 2.33301L9.83329 2.33301Z" fill="#B27C64"/>
<path d="M18.6667 25.667L18.3131 26.0205L18.6667 26.3741L19.0202 26.0205L18.6667 25.667ZM19.1667 8.16699C19.1667 7.89085 18.9428 7.66699 18.6667 7.66699C18.3905 7.66699 18.1667 7.89085 18.1667 8.16699L19.1667 8.16699ZM13.6464 21.3539L18.3131 26.0205L19.0202 25.3134L14.3536 20.6468L13.6464 21.3539ZM19.0202 26.0205L23.6869 21.3539L22.9798 20.6468L18.3131 25.3134L19.0202 26.0205ZM19.1667 25.667L19.1667 8.16699L18.1667 8.16699L18.1667 25.667L19.1667 25.667Z" fill="#B27C64"/>
</svg>
