<svg width="389" height="160" viewBox="0 0 389 160" fill="none" xmlns="http://www.w3.org/2000/svg">
<path opacity="0.6" d="M0.270142 151.299C12.4162 151.299 12.4162 159.338 24.5658 159.338C36.7119 159.338 36.7119 151.299 48.8614 151.299C61.0075 151.299 61.0075 159.338 73.157 159.338C85.3031 159.338 85.3031 151.299 97.4492 151.299C109.595 151.299 109.595 159.338 121.741 159.338C133.888 159.338 133.888 151.299 146.037 151.299C158.183 151.299 158.183 159.338 170.333 159.338C182.482 159.338 182.482 151.299 194.628 151.299C206.774 151.299 206.774 159.338 218.924 159.338C231.073 159.338 231.073 151.299 243.219 151.299C255.369 151.299 255.369 159.338 267.515 159.338C279.661 159.338 279.661 151.299 291.811 151.299C303.96 151.299 303.96 159.338 316.106 159.338C328.256 159.338 328.256 151.299 340.402 151.299C352.551 151.299 352.551 159.338 364.701 159.338C376.85 159.338 376.85 151.299 389 151.299M0.270142 134.646C12.4162 134.646 12.4162 142.685 24.5658 142.685C36.7119 142.685 36.7119 134.646 48.8614 134.646C61.0075 134.646 61.0075 142.685 73.157 142.685C85.3031 142.685 85.3031 134.646 97.4492 134.646C109.595 134.646 109.595 142.685 121.741 142.685C133.888 142.685 133.888 134.646 146.037 134.646C158.183 134.646 158.183 142.685 170.333 142.685C182.482 142.685 182.482 134.646 194.628 134.646C206.774 134.646 206.774 142.685 218.924 142.685C231.073 142.685 231.073 134.646 243.219 134.646C255.369 134.646 255.369 142.685 267.515 142.685C279.661 142.685 279.661 134.646 291.811 134.646C303.96 134.646 303.96 142.685 316.106 142.685C328.256 142.685 328.256 134.646 340.402 134.646C352.551 134.646 352.551 142.685 364.701 142.685C376.85 142.685 376.85 134.646 389 134.646M0.270142 117.994C12.4162 117.994 12.4162 126.033 24.5658 126.033C36.7119 126.033 36.7119 117.994 48.8614 117.994C61.0075 117.994 61.0075 126.033 73.157 126.033C85.3031 126.033 85.3031 117.994 97.4492 117.994C109.595 117.994 109.595 126.033 121.741 126.033C133.888 126.033 133.888 117.994 146.037 117.994C158.183 117.994 158.183 126.033 170.333 126.033C182.482 126.033 182.482 117.994 194.628 117.994C206.774 117.994 206.774 126.033 218.924 126.033C231.073 126.033 231.073 117.994 243.219 117.994C255.369 117.994 255.369 126.033 267.515 126.033C279.661 126.033 279.661 117.994 291.811 117.994C303.96 117.994 303.96 126.033 316.106 126.033C328.256 126.033 328.256 117.994 340.402 117.994C352.551 117.994 352.551 126.033 364.701 126.033C376.85 126.033 376.85 117.994 389 117.994M0.270142 101.341C12.4162 101.341 12.4162 109.38 24.5658 109.38C36.7119 109.38 36.7119 101.341 48.8614 101.341C61.0075 101.341 61.0075 109.38 73.157 109.38C85.3031 109.38 85.3031 101.341 97.4492 101.341C109.595 101.341 109.595 109.38 121.741 109.38C133.888 109.38 133.888 101.341 146.037 101.341C158.183 101.341 158.183 109.38 170.333 109.38C182.482 109.38 182.482 101.341 194.628 101.341C206.774 101.341 206.774 109.38 218.924 109.38C231.073 109.38 231.073 101.341 243.219 101.341C255.369 101.341 255.369 109.38 267.515 109.38C279.661 109.38 279.661 101.341 291.811 101.341C303.96 101.341 303.96 109.38 316.106 109.38C328.256 109.38 328.256 101.341 340.402 101.341C352.551 101.341 352.551 109.38 364.701 109.38C376.85 109.38 376.85 101.341 389 101.341M0.270142 84.6889C12.4162 84.6889 12.4162 92.728 24.5658 92.728C36.7119 92.728 36.7119 84.6889 48.8614 84.6889C61.0075 84.6889 61.0075 92.728 73.157 92.728C85.3031 92.728 85.3031 84.6889 97.4492 84.6889C109.595 84.6889 109.595 92.728 121.741 92.728C133.888 92.728 133.888 84.6889 146.037 84.6889C158.183 84.6889 158.183 92.728 170.333 92.728C182.482 92.728 182.482 84.6889 194.628 84.6889C206.774 84.6889 206.774 92.728 218.924 92.728C231.073 92.728 231.073 84.6889 243.219 84.6889C255.369 84.6889 255.369 92.728 267.515 92.728C279.661 92.728 279.661 84.6889 291.811 84.6889C303.96 84.6889 303.96 92.728 316.106 92.728C328.256 92.728 328.256 84.6889 340.402 84.6889C352.551 84.6889 352.551 92.728 364.701 92.728C376.85 92.728 376.85 84.6889 389 84.6889M0.270142 68.0364C12.4162 68.0364 12.4162 76.0755 24.5658 76.0755C36.7119 76.0755 36.7119 68.0364 48.8614 68.0364C61.0075 68.0364 61.0075 76.0755 73.157 76.0755C85.3031 76.0755 85.3031 68.0364 97.4492 68.0364C109.595 68.0364 109.595 76.0755 121.741 76.0755C133.888 76.0755 133.888 68.0364 146.037 68.0364C158.183 68.0364 158.183 76.0755 170.333 76.0755C182.482 76.0755 182.482 68.0364 194.628 68.0364C206.774 68.0364 206.774 76.0755 218.924 76.0755C231.073 76.0755 231.073 68.0364 243.219 68.0364C255.369 68.0364 255.369 76.0755 267.515 76.0755C279.661 76.0755 279.661 68.0364 291.811 68.0364C303.96 68.0364 303.96 76.0755 316.106 76.0755C328.256 76.0755 328.256 68.0364 340.402 68.0364C352.551 68.0364 352.551 76.0755 364.701 76.0755C376.85 76.0755 376.85 68.0364 389 68.0364M0.270142 51.384C12.4162 51.384 12.4162 59.4231 24.5658 59.4231C36.7119 59.4231 36.7119 51.384 48.8614 51.384C61.0075 51.384 61.0075 59.4231 73.157 59.4231C85.3031 59.4231 85.3031 51.384 97.4492 51.384C109.595 51.384 109.595 59.4231 121.741 59.4231C133.888 59.4231 133.888 51.384 146.037 51.384C158.183 51.384 158.183 59.4231 170.333 59.4231C182.482 59.4231 182.482 51.384 194.628 51.384C206.774 51.384 206.774 59.4231 218.924 59.4231C231.073 59.4231 231.073 51.384 243.219 51.384C255.369 51.384 255.369 59.4231 267.515 59.4231C279.661 59.4231 279.661 51.384 291.811 51.384C303.96 51.384 303.96 59.4231 316.106 59.4231C328.256 59.4231 328.256 51.384 340.402 51.384C352.551 51.384 352.551 59.4231 364.701 59.4231C376.85 59.4231 376.85 51.384 389 51.384M0.270142 34.7315C12.4162 34.7315 12.4162 42.7706 24.5658 42.7706C36.7119 42.7706 36.7119 34.7315 48.8614 34.7315C61.0075 34.7315 61.0075 42.7706 73.157 42.7706C85.3031 42.7706 85.3031 34.7315 97.4492 34.7315C109.595 34.7315 109.595 42.7706 121.741 42.7706C133.888 42.7706 133.888 34.7315 146.037 34.7315C158.183 34.7315 158.183 42.7706 170.333 42.7706C182.482 42.7706 182.482 34.7315 194.628 34.7315C206.774 34.7315 206.774 42.7706 218.924 42.7706C231.073 42.7706 231.073 34.7315 243.219 34.7315C255.369 34.7315 255.369 42.7706 267.515 42.7706C279.661 42.7706 279.661 34.7315 291.811 34.7315C303.96 34.7315 303.96 42.7706 316.106 42.7706C328.256 42.7706 328.256 34.7315 340.402 34.7315C352.551 34.7315 352.551 42.7706 364.701 42.7706C376.85 42.7706 376.85 34.7315 389 34.7315M0.270142 18.0791C12.4162 18.0791 12.4162 26.1182 24.5658 26.1182C36.7119 26.1182 36.7119 18.0791 48.8614 18.0791C61.0075 18.0791 61.0075 26.1182 73.157 26.1182C85.3031 26.1182 85.3031 18.0791 97.4492 18.0791C109.595 18.0791 109.595 26.1182 121.741 26.1182C133.888 26.1182 133.888 18.0791 146.037 18.0791C158.183 18.0791 158.183 26.1182 170.333 26.1182C182.482 26.1182 182.482 18.0791 194.628 18.0791C206.774 18.0791 206.774 26.1182 218.924 26.1182C231.073 26.1182 231.073 18.0791 243.219 18.0791C255.369 18.0791 255.369 26.1182 267.515 26.1182C279.661 26.1182 279.661 18.0791 291.811 18.0791C303.96 18.0791 303.96 26.1182 316.106 26.1182C328.256 26.1182 328.256 18.0791 340.402 18.0791C352.551 18.0791 352.551 26.1182 364.701 26.1182C376.85 26.1182 376.85 18.0791 389 18.0791M0.270142 1.42664C12.4162 1.42664 12.4162 9.46575 24.5658 9.46575C36.7119 9.46575 36.7119 1.42664 48.8614 1.42664C61.0075 1.42664 61.0075 9.46575 73.157 9.46575C85.3031 9.46575 85.3031 1.42664 97.4492 1.42664C109.595 1.42664 109.595 9.46575 121.741 9.46575C133.888 9.46575 133.888 1.42664 146.037 1.42664C158.183 1.42664 158.183 9.46575 170.333 9.46575C182.482 9.46575 182.482 1.42664 194.628 1.42664C206.774 1.42664 206.774 9.46575 218.924 9.46575C231.073 9.46575 231.073 1.42664 243.219 1.42664C255.369 1.42664 255.369 9.46575 267.515 9.46575C279.661 9.46575 279.661 1.42664 291.811 1.42664C303.96 1.42664 303.96 9.46575 316.106 9.46575C328.256 9.46575 328.256 1.42664 340.402 1.42664C352.551 1.42664 352.551 9.46575 364.701 9.46575C376.85 9.46575 376.85 1.42664 389 1.42664" stroke="url(#paint0_linear_65_1646)" stroke-miterlimit="10"/>
<defs>
<linearGradient id="paint0_linear_65_1646" x1="194.635" y1="163.701" x2="194.635" y2="13.27" gradientUnits="userSpaceOnUse">
<stop stop-color="#B27C64"/>
<stop offset="1" stop-color="#B27C64" stop-opacity="0"/>
</linearGradient>
</defs>
</svg>
