<svg width="28" height="27" viewBox="0 0 28 27" fill="none" xmlns="http://www.w3.org/2000/svg">
<path d="M19.625 20.25C20.2217 20.25 20.794 20.4871 21.216 20.909C21.6379 21.331 21.875 21.9033 21.875 22.5C21.875 23.0967 21.6379 23.669 21.216 24.091C20.794 24.5129 20.2217 24.75 19.625 24.75C18.3762 24.75 17.375 23.7375 17.375 22.5C17.375 21.2512 18.3762 20.25 19.625 20.25ZM1.625 2.25H5.30375L6.36125 4.5H23C23.2984 4.5 23.5845 4.61853 23.7955 4.8295C24.0065 5.04048 24.125 5.32663 24.125 5.625C24.125 5.81625 24.0687 6.0075 23.99 6.1875L19.9625 13.4663C19.58 14.1525 18.8375 14.625 17.9937 14.625H9.6125L8.6 16.4587L8.56625 16.5938C8.56625 16.6683 8.59588 16.7399 8.64863 16.7926C8.70137 16.8454 8.77291 16.875 8.8475 16.875H21.875V19.125H8.375C7.12625 19.125 6.125 18.1125 6.125 16.875C6.125 16.4812 6.22625 16.11 6.395 15.795L7.925 13.0387L3.875 4.5H1.625V2.25ZM8.375 20.25C8.97174 20.25 9.54403 20.4871 9.96599 20.909C10.3879 21.331 10.625 21.9033 10.625 22.5C10.625 23.0967 10.3879 23.669 9.96599 24.091C9.54403 24.5129 8.97174 24.75 8.375 24.75C7.12625 24.75 6.125 23.7375 6.125 22.5C6.125 21.2512 7.12625 20.25 8.375 20.25ZM18.5 12.375L21.6275 6.75H7.4075L10.0625 12.375H18.5Z" fill="#A0616A"/>
</svg>
