<svg width="28" height="27" viewBox="0 0 28 27" fill="none" xmlns="http://www.w3.org/2000/svg">
<path d="M14.8755 2.94289e-07C15.8831 -0.000385638 16.8479 0.378829 17.5502 1.05126C18.2525 1.72369 18.6324 2.63207 18.6019 3.47984L18.6139 3.67922C18.6384 3.87557 18.7071 4.06507 18.8185 4.23974C19.0355 4.58415 19.3908 4.83409 19.806 4.93444C20.2212 5.03478 20.6622 4.97728 21.0799 4.74982L21.3127 4.63792C23.0605 3.87311 25.1568 4.48089 26.1263 6.04703L26.9977 7.45435C27.0206 7.49145 27.0409 7.52979 27.0583 7.5691L27.1392 7.71987C27.9185 9.26801 27.364 11.1095 25.8834 12.0451L25.5178 12.2589C25.3267 12.383 25.1673 12.545 25.0475 12.7397C24.831 13.0854 24.7716 13.4972 24.8824 13.8839C24.9932 14.2706 25.265 14.6002 25.6773 14.822L25.9146 14.9635C26.6313 15.4301 27.149 16.1178 27.3748 16.906C27.6296 17.7953 27.493 18.7425 26.9883 19.5486L26.0509 21.002L25.9096 21.207C24.8083 22.681 22.6699 23.1314 21.0381 22.2547L20.8447 22.1619C20.6429 22.078 20.4252 22.0318 20.227 22.0267C19.7959 22.0247 19.3819 22.1833 19.077 22.467C18.7722 22.7507 18.6019 23.1361 18.603 23.5842L18.5914 23.8159C18.4336 25.6099 16.8201 27 14.8759 27H13.1205C11.0615 27 9.39245 25.4465 9.39454 23.5917L9.38247 23.3923C9.35795 23.196 9.28926 23.0065 9.17226 22.8228C8.96003 22.4775 8.6084 22.2254 8.19554 22.1226C7.78267 22.0197 7.34278 22.0747 6.91698 22.3038L6.66399 22.4214C5.86391 22.7563 4.96144 22.8181 4.1158 22.5944C3.16172 22.3421 2.35503 21.7462 1.88428 20.9552L0.978597 19.4997L0.858057 19.284C0.0332877 17.6636 0.679783 15.7157 2.32058 14.8331L2.47022 14.7458C2.90856 14.4635 3.17139 13.9979 3.17139 13.5C3.17139 12.9586 2.86106 12.4583 2.31821 12.1655L2.09795 12.034C0.514221 11.0089 0.0303315 9.01865 1.01143 7.43439L1.9341 6.02324C2.96025 4.36558 5.23431 3.79373 6.98334 4.72731L7.17268 4.82125C7.36569 4.90371 7.57535 4.94748 7.77723 4.94948C8.66738 4.94956 9.3926 4.28425 9.40608 3.43144L9.41817 3.16954C9.49106 2.35867 9.8691 1.59665 10.4871 1.01867C11.1843 0.366593 12.132 2.94289e-07 13.1205 2.94289e-07H14.8755ZM14.8759 1.95445H13.1205C12.6907 1.95445 12.2786 2.11384 11.9755 2.39736C11.7068 2.64865 11.5424 2.98 11.5136 3.28942L11.4945 3.70103C11.3474 5.49568 9.7364 6.90411 7.76622 6.90387C7.25835 6.89896 6.75768 6.79445 6.24711 6.57484L5.97375 6.44065C5.19487 6.02526 4.20171 6.275 3.74081 7.01898L2.81814 8.43015C2.39536 9.11309 2.6068 9.98279 3.26144 10.4075L3.63193 10.6259C4.65227 11.268 5.27125 12.343 5.27125 13.5C5.27125 14.6401 4.66955 15.706 3.62943 16.375L3.40802 16.5046C2.67924 16.897 2.39799 17.7444 2.73672 18.4118L2.81671 18.5556L3.7109 19.9914C3.92088 20.344 4.27319 20.6042 4.68986 20.7145C5.05918 20.8121 5.45334 20.7851 5.76085 20.6574L5.91535 20.587C6.7682 20.1239 7.78451 19.997 8.73837 20.2345C9.69223 20.4721 10.5046 21.0545 10.9865 21.8387C11.2457 22.2453 11.4097 22.6978 11.4732 23.2179L11.5019 23.6953C11.5903 24.4545 12.2812 25.0456 13.1205 25.0456H14.8759C15.7248 25.0456 16.4298 24.4381 16.4961 23.694L16.5041 23.5468C16.4993 22.6239 16.8911 21.7376 17.5922 21.085C18.2933 20.4324 19.2456 20.0678 20.2602 20.0726C20.758 20.085 21.2479 20.1888 21.7487 20.3986L22.1977 20.612C22.9024 20.8999 23.7384 20.6898 24.1621 20.1241L24.2651 19.9742L25.1808 18.5539C25.3972 18.2081 25.4566 17.7963 25.3458 17.4096C25.2477 17.0669 25.0225 16.7679 24.7496 16.589L24.3627 16.3614C23.6228 15.8959 23.0851 15.1959 22.8535 14.3875C22.5987 13.4982 22.7353 12.551 23.2292 11.762C23.4996 11.3227 23.8712 10.9449 24.3556 10.6317L24.584 10.4978C25.3117 10.1017 25.5927 9.2543 25.2564 8.58443L25.156 8.40414L25.138 8.3663L24.3069 7.02281C23.9139 6.38787 23.0959 6.11351 22.4019 6.33028L22.2442 6.38908L22.0976 6.4586C21.2475 6.9247 20.2332 7.05694 19.2782 6.82616C18.3233 6.59537 17.5062 6.02053 17.0099 5.23282C16.7507 4.8263 16.5867 4.37379 16.5232 3.85363L16.5045 3.51336C16.5172 3.10396 16.3512 2.70724 16.0445 2.41357C15.7378 2.1199 15.3164 1.95445 14.8759 1.95445ZM14.0046 9.08796C16.6226 9.08796 18.7449 11.0633 18.7449 13.5C18.7449 15.9367 16.6226 17.912 14.0046 17.912C11.3866 17.912 9.26432 15.9367 9.26432 13.5C9.26432 11.0633 11.3866 9.08796 14.0046 9.08796ZM14.0046 11.0424C12.5463 11.0424 11.3642 12.1427 11.3642 13.5C11.3642 14.8573 12.5463 15.9576 14.0046 15.9576C15.4629 15.9576 16.645 14.8573 16.645 13.5C16.645 12.1427 15.4629 11.0424 14.0046 11.0424Z" fill="#A0616A"/>
</svg>
