<svg width="28" height="27" viewBox="0 0 28 27" fill="none" xmlns="http://www.w3.org/2000/svg">
<path d="M18.5 23.625H9.49998C9.20161 23.625 8.91546 23.5065 8.70448 23.2955C8.4935 23.0845 8.37498 22.7984 8.37498 22.5V13.5787L6.91248 14.76C6.47373 15.1875 5.76498 15.1875 5.32623 14.76L2.14248 11.5763C1.70373 11.1375 1.70373 10.4288 2.14248 9.99L8.75748 3.375H10.625C10.625 4.6125 12.1325 5.625 14 5.625C15.8675 5.625 17.375 4.6125 17.375 3.375H19.2425L25.8575 9.99C26.2962 10.4288 26.2962 11.1375 25.8575 11.5763L22.6737 14.76C22.235 15.1875 21.5262 15.1875 21.0875 14.76L19.625 13.5787V22.5C19.625 22.7984 19.5065 23.0845 19.2955 23.2955C19.0845 23.5065 18.7983 23.625 18.5 23.625ZM23.4725 10.7775L18.6237 5.94C18.275 6.33375 17.8587 6.6825 17.375 6.975C16.43 7.5375 15.2712 7.875 14 7.875C12.0875 7.875 10.3887 7.11 9.37623 5.94L4.52748 10.7775L6.12498 12.375L9.49998 10.125H10.625V21.375H17.375V10.125H18.5L21.875 12.375L23.4725 10.7775Z" fill="#A0616A"/>
</svg>
