<svg width="28" height="27" viewBox="0 0 28 27" fill="none" xmlns="http://www.w3.org/2000/svg">
<path d="M11.3521 3.16619C12.8337 2.0343 14.9104 1.98943 16.4376 3.03157L16.6254 3.16619L23.7292 8.63045C24.5109 9.21266 24.9904 10.0776 25.0721 11.0188L25.0837 11.2442V20.3409C25.0837 22.6854 23.1576 24.5925 20.7437 24.7159H18.4221C17.3126 24.6946 16.4154 23.8644 16.3337 22.8212L16.3221 22.663V19.4558C16.3221 19.1069 16.0526 18.8163 15.6921 18.7591L15.5871 18.7479H12.4709C12.0987 18.7591 11.7954 19.0172 11.7487 19.3537L11.7371 19.4558V22.6529C11.7371 22.7191 11.7242 22.7976 11.7137 22.8537L11.7021 22.8772L11.6892 22.9547C11.5504 23.9093 10.7337 24.6373 9.71872 24.7058L9.56705 24.7159H7.47872C5.04039 24.7159 3.04539 22.8772 2.91705 20.5652V11.2442C2.92755 10.2896 3.36039 9.40337 4.08372 8.78638L11.3521 3.16619ZM15.6104 4.38894C14.7237 3.70465 13.4637 3.67212 12.5304 4.26555L12.3542 4.38894L5.26089 9.88686C4.85372 10.1774 4.60872 10.6149 4.55039 11.0748L4.53755 11.2543V20.3409C4.53755 21.8329 5.75089 23.0556 7.29205 23.1454H9.56705C9.82372 23.1454 10.0454 22.9782 10.0792 22.7426L10.1037 22.5407L10.1154 22.4835V19.4558C10.1154 18.2555 11.0721 17.2795 12.2971 17.1886H15.5871C16.8342 17.1886 17.8492 18.1096 17.9437 19.2875V22.663C17.9437 22.8986 18.1187 23.1016 18.3521 23.1454H20.5209C22.0842 23.1454 23.3559 21.991 23.4492 20.5204L23.4621 20.3409V11.2543C23.4492 10.7731 23.2404 10.3232 22.8787 9.98782L22.7271 9.8633L15.6104 4.38894Z" fill="#A0616A"/>
</svg>
