<svg width="28" height="27" viewBox="0 0 28 27" fill="none" xmlns="http://www.w3.org/2000/svg">
<path d="M14 4.5C15.1935 4.5 16.3381 4.97411 17.182 5.81802C18.0259 6.66193 18.5 7.80653 18.5 9C18.5 10.1935 18.0259 11.3381 17.182 12.182C16.3381 13.0259 15.1935 13.5 14 13.5C12.8065 13.5 11.6619 13.0259 10.818 12.182C9.97411 11.3381 9.5 10.1935 9.5 9C9.5 7.80653 9.97411 6.66193 10.818 5.81802C11.6619 4.97411 12.8065 4.5 14 4.5ZM14 6.75C13.4033 6.75 12.831 6.98705 12.409 7.40901C11.9871 7.83097 11.75 8.40326 11.75 9C11.75 9.59674 11.9871 10.169 12.409 10.591C12.831 11.0129 13.4033 11.25 14 11.25C14.5967 11.25 15.169 11.0129 15.591 10.591C16.0129 10.169 16.25 9.59674 16.25 9C16.25 8.40326 16.0129 7.83097 15.591 7.40901C15.169 6.98705 14.5967 6.75 14 6.75ZM14 14.625C17.0037 14.625 23 16.1213 23 19.125V22.5H5V19.125C5 16.1213 10.9963 14.625 14 14.625ZM14 16.7625C10.6588 16.7625 7.1375 18.405 7.1375 19.125V20.3625H20.8625V19.125C20.8625 18.405 17.3413 16.7625 14 16.7625Z" fill="#A0616A"/>
</svg>
