<svg width="50" height="50" viewBox="0 0 50 50" fill="none" xmlns="http://www.w3.org/2000/svg">
<path d="M39.5834 4.91504H10.4167C6.97085 4.91504 4.16669 7.66944 4.16669 11.0541V16.8474C4.16669 19.0022 4.96252 20.9606 6.25002 22.4667V41.7496C6.25002 42.2923 6.46951 42.8128 6.86021 43.1966C7.25092 43.5803 7.78082 43.7959 8.33335 43.7959H25C25.5526 43.7959 26.0825 43.5803 26.4732 43.1966C26.8639 42.8128 27.0834 42.2923 27.0834 41.7496V31.5178H35.4167V41.7496C35.4167 42.2923 35.6362 42.8128 36.0269 43.1966C36.4176 43.5803 36.9475 43.7959 37.5 43.7959H41.6667C42.2192 43.7959 42.7491 43.5803 43.1398 43.1966C43.5305 42.8128 43.75 42.2923 43.75 41.7496V22.4646C45.0375 20.9606 45.8334 19.0022 45.8334 16.8453V11.0541C45.8334 7.66944 43.0292 4.91504 39.5834 4.91504ZM41.6667 11.0541V16.8474C41.6667 19.1802 39.8979 21.1693 37.7271 21.2819L37.5 21.2859C35.2021 21.2859 33.3334 19.4504 33.3334 17.1932V9.00777H39.5834C40.7334 9.00777 41.6667 9.92658 41.6667 11.0541ZM20.8334 17.1932V9.00777H29.1667V17.1932C29.1667 19.4504 27.2979 21.2859 25 21.2859C22.7021 21.2859 20.8334 19.4504 20.8334 17.1932ZM8.33335 11.0541C8.33335 9.92658 9.26669 9.00777 10.4167 9.00777H16.6667V17.1932C16.6667 19.4504 14.7979 21.2859 12.5 21.2859L12.2729 21.2798C10.1021 21.1693 8.33335 19.1802 8.33335 16.8474V11.0541ZM20.8334 33.5641H12.5V27.425H20.8334V33.5641Z" fill="#5F3B40"/>
</svg>
